<svg
  class="img-fluid"
  id="outputsvg"
  xmlns="http://www.w3.org/2000/svg"
  style="transform: none; transform-origin: 50% 50%; cursor: move"
  width="172"
  height="701"
  viewBox="0 0 1720 7010"
>
  <g
    id="lyFfR4Y7T3gN4WBp8NSvjx"
    fill="rgb(253,185,118)"
    style="transform: none"
  >
    <g>
      <path
        id="pbStQNSnN"
        d="M635 6843 l-80 -4 29 -470 c25 -404 27 -472 15 -481 -9 -6 16 -8 80 -4 95 6 115 11 94 24 -8 5 -9 130 -4 457 4 248 9 457 11 465 6 17 -14 19 -145 13z"
      ></path>
      <path
        id="pTReb357O"
        d="M1312 6633 c3 -300 -10 -734 -23 -750 -10 -11 7 -13 95 -13 58 0 106 4 106 9 0 5 -5 11 -10 13 -7 2 -3 101 14 303 14 165 30 364 35 443 7 109 13 148 26 162 15 16 15 18 0 24 -9 3 -68 6 -131 6 l-115 0 3 -197z"
      ></path>
      <path
        id="pAhKvgaQ5"
        d="M1411 4748 c-8 -22 -30 -179 -52 -373 -5 -49 -14 -124 -19 -165 -14 -115 -37 -344 -85 -850 -9 -91 -20 -206 -25 -257 -6 -50 -10 -127 -10 -170 0 -76 1 -80 30 -101 16 -12 36 -22 44 -22 8 0 18 -4 21 -10 8 -13 75 -13 75 -1 0 6 -5 13 -11 17 -6 3 -9 18 -5 33 3 14 14 67 25 116 56 262 122 811 166 1400 8 105 18 218 21 252 l7 61 -48 46 c-39 39 -53 46 -86 46 -32 0 -41 -4 -48 -22z"
      ></path>
      <path
        id="pHXhyzN0u"
        d="M1030 2063 c-33 -33 -97 -60 -176 -76 -44 -8 -63 -16 -60 -24 13 -33 18 -113 7 -113 -6 0 -11 -5 -11 -11 0 -7 19 -9 59 -4 38 4 61 3 65 -4 9 -14 57 -14 93 0 40 15 55 -9 47 -78 l-7 -53 36 0 c20 0 42 7 50 15 13 13 16 13 21 -2 9 -22 -1 -71 -35 -183 -34 -110 -36 -137 -10 -159 17 -15 14 -16 -48 -16 -91 0 -138 -11 -146 -35 -4 -11 -14 -20 -24 -20 -31 0 -43 -50 -39 -155 2 -82 6 -99 22 -111 30 -21 95 -17 164 11 68 28 101 32 103 13 3 -33 -5 -54 -27 -73 -28 -24 -33 -79 -9 -89 13 -5 14 -10 4 -28 -14 -27 -56 -68 -70 -68 -5 0 -9 -16 -9 -35 0 -28 4 -35 20 -35 11 0 20 -4 20 -9 0 -5 7 -11 16 -13 23 -4 -39 -68 -66 -68 -17 0 -20 -7 -20 -40 0 -28 4 -40 14 -40 23 0 27 -29 6 -50 -11 -11 -24 -20 -30 -20 -5 0 -10 -17 -10 -39 0 -39 13 -54 75 -86 11 -6 21 -21 23 -33 2 -16 10 -22 28 -22 13 0 24 6 24 13 0 6 28 30 63 52 90 58 240 207 302 300 108 163 148 296 148 500 1 205 -47 338 -166 459 -77 78 -196 155 -289 185 -43 14 -47 19 -59 70 -33 136 -39 174 -28 187 22 27 -44 15 -71 -13z m41 -820 c22 3 39 1 39 -4 0 -5 -4 -9 -10 -9 -5 0 -10 -6 -10 -13 0 -16 -36 -47 -54 -47 -7 0 -23 -9 -36 -20 -12 -11 -27 -17 -31 -14 -12 7 -12 84 0 84 5 0 11 9 14 21 5 18 8 19 28 9 12 -7 39 -10 60 -7z m297 -391 c-8 -20 -19 -32 -31 -32 -10 0 -27 -5 -37 -10 -19 -10 -19 -9 0 32 24 53 49 74 67 55 10 -10 10 -19 1 -45z m-102 -109 c-11 -11 -17 4 -9 23 7 18 8 18 11 1 2 -10 1 -21 -2 -24z m-41 -97 c9 -13 18 -39 22 -59 5 -31 3 -35 -22 -41 -33 -8 -51 5 -59 45 -14 70 25 107 59 55z"
      ></path>
    </g>
  </g>
  <g
    id="l5EmqNLK2DYJMH3VUqBukaa"
    fill="rgb(254,177,112)"
    style="transform: none"
  >
    <g>
      <path
        id="pd5hcXaes"
        d="M630 6842 c0 -4 -18 -6 -39 -4 -36 4 -39 2 -34 -17 3 -11 9 -18 14 -15 5 3 9 0 9 -5 0 -6 5 -11 11 -11 5 0 7 5 4 10 -4 6 18 10 59 10 43 0 66 -4 66 -11 0 -8 -17 -10 -52 -6 -40 4 -56 1 -67 -11 -10 -10 -16 -12 -19 -4 -2 7 -8 12 -13 12 -8 0 -2 -260 7 -269 2 -2 4 51 4 118 l0 122 58 -4 c64 -5 102 5 102 28 0 8 5 15 11 15 6 0 8 -9 3 -22 -4 -13 -8 -144 -9 -293 -1 -148 -4 -328 -7 -400 -3 -71 -3 -94 1 -50 3 44 9 71 12 60 3 -11 4 14 3 55 -1 71 -1 72 6 20 4 -30 6 101 6 291 -1 279 2 349 12 359 12 11 12 14 0 21 -16 11 -148 12 -148 1z"
      ></path>
      <path
        id="pJaHkhLFl"
        d="M1323 6825 c-7 -8 -13 -18 -13 -22 0 -6 191 -9 245 -4 23 3 -23 21 -52 21 -18 0 -33 5 -33 10 0 16 -133 12 -147 -5z"
      ></path>
      <path
        id="p9D3yP4tW"
        d="M1323 6778 c-6 -8 -13 -180 -16 -430 l-6 -416 79 5 c57 4 80 3 80 -6 0 -7 -27 -11 -80 -11 -65 0 -80 -3 -80 -15 0 -9 -7 -18 -15 -21 -40 -16 -5 -24 100 -24 96 0 115 3 115 15 0 8 -6 15 -14 15 -16 0 -27 55 -13 69 5 5 7 34 5 65 -1 31 0 56 5 56 11 0 8 98 -3 105 -5 3 -10 16 -9 28 1 20 2 20 9 -3 7 -24 7 -23 15 13 4 20 5 58 1 85 -4 32 -3 41 3 27 8 -16 10 -10 10 26 1 59 -9 110 -20 104 -4 -3 -6 -12 -2 -20 3 -8 0 -15 -7 -15 -8 0 -10 8 -6 23 3 12 6 30 6 40 0 31 18 18 28 -20 l10 -38 1 33 c1 18 -6 40 -14 49 -9 8 -19 28 -22 44 -12 60 -19 35 -18 -64 0 -56 4 -108 9 -116 11 -18 11 -94 0 -112 -5 -8 -10 -72 -11 -144 -1 -71 -2 -140 -2 -152 -1 -20 -6 -23 -40 -23 l-38 0 -6 60 c-4 33 -5 86 -3 118 2 31 1 40 -1 20 -2 -21 -9 -38 -15 -38 -6 0 -8 28 -5 83 5 71 3 65 -12 -43 l-18 -125 2 199 c1 145 4 201 13 204 15 5 17 162 2 162 -5 0 -10 18 -10 40 0 51 17 52 23 3 3 -31 4 -30 3 8 -1 25 5 53 12 61 7 10 10 27 5 48 -6 31 -7 32 -14 12 -5 -14 -14 -20 -24 -16 -21 8 -19 25 3 18 13 -5 14 -4 3 4 -11 8 -11 10 0 15 8 3 9 6 3 6 -6 1 -16 -5 -21 -11z m37 -788 c0 -22 -4 -40 -10 -40 -5 0 -10 18 -10 40 0 22 5 40 10 40 6 0 10 -18 10 -40z m73 -87 c-18 -2 -48 -2 -65 0 -18 2 -4 4 32 4 36 0 50 -2 33 -4z"
      ></path>
      <path
        id="p12CkVYuzi"
        d="M1423 6777 c-59 -15 -54 -27 12 -27 45 0 55 -3 56 -17 0 -15 2 -15 9 2 6 14 9 15 10 5 0 -8 3 -34 5 -57 2 -24 -1 -43 -6 -43 -4 0 -6 7 -3 15 4 8 1 15 -4 15 -6 0 -12 -6 -15 -12 -2 -7 -2 -1 0 15 3 19 0 27 -11 27 -18 0 -18 -67 1 -75 7 -2 10 -11 7 -20 -3 -8 -2 -15 4 -15 5 0 13 -15 17 -32 l7 -33 9 30 c5 17 8 57 8 90 -1 33 2 76 6 96 6 32 4 37 -17 42 -28 8 -40 7 -95 -6z m106 -13 c2 -2 -12 -4 -32 -4 -20 0 -37 4 -37 10 0 8 58 3 69 -6z"
      ></path>
      <path
        id="p1ZnxOB8X"
        d="M1367 6600 c-10 -134 -12 -189 -5 -196 12 -12 19 62 16 176 l-3 115 -8 -95z"
      ></path>
      <path
        id="ps62C9rQi"
        d="M603 6550 c0 -25 2 -35 4 -22 2 12 2 32 0 45 -2 12 -4 2 -4 -23z"
      ></path>
      <path
        id="pxgGWJ4rS"
        d="M580 6463 c0 -35 31 -537 34 -540 1 -1 34 1 74 4 l72 6 -2 51 -1 51 -6 -45 -6 -45 -45 0 -45 0 1 83 c1 45 -3 82 -7 82 -5 0 -9 12 -9 26 0 14 4 23 10 19 6 -3 10 4 10 17 0 16 -3 19 -9 10 -7 -11 -10 -10 -15 3 -9 24 -7 37 4 30 6 -4 10 13 11 42 1 26 2 78 3 114 1 50 -2 65 -11 62 -14 -6 -18 -79 -5 -85 5 -1 6 -25 2 -53 -4 -27 -8 -42 -9 -32 0 10 -5 16 -10 13 -12 -8 -20 50 -9 66 4 7 7 31 6 53 l-1 40 -8 -45 c-6 -40 -7 -37 -6 24 2 47 -2 70 -10 73 -9 3 -13 -5 -13 -24z m50 -299 c0 -14 -4 -23 -10 -19 -5 3 -10 15 -10 26 0 10 5 19 10 19 6 0 10 -12 10 -26z m20 -150 c0 -9 -5 -14 -12 -12 -18 6 -21 28 -4 28 9 0 16 -7 16 -16z"
      ></path>
      <path
        id="pJrecb4be"
        d="M651 5913 c-31 -4 -69 -28 -60 -38 3 -2 48 -1 102 2 67 4 97 10 97 18 0 22 -50 29 -139 18z"
      ></path>
      <path
        id="p10jfKrRD4"
        d="M1401 4728 c-24 -124 -74 -553 -69 -589 3 -16 2 -29 -2 -29 -10 0 -32 -253 -24 -274 4 -10 2 -21 -4 -25 -7 -4 -13 -47 -14 -109 -2 -56 -7 -102 -12 -102 -4 0 -6 -20 -4 -45 2 -25 0 -46 -4 -47 -4 -2 -8 -48 -10 -103 -2 -55 -6 -103 -11 -106 -4 -3 -8 -56 -10 -117 -1 -62 -6 -112 -11 -112 -5 0 -6 -22 -4 -50 3 -27 1 -50 -3 -50 -5 0 -9 -27 -9 -60 l0 -60 47 -30 c35 -23 59 -30 95 -30 26 0 48 4 48 9 0 10 -30 25 -43 22 -4 0 -10 6 -13 14 -4 10 -13 13 -24 10 -10 -3 -22 0 -26 7 -10 16 -14 69 -4 63 3 -2 6 18 6 45 -1 26 -2 47 -4 46 -9 -9 -29 -112 -24 -124 3 -9 1 -13 -4 -9 -5 3 -10 38 -11 79 -1 47 2 64 7 48 6 -22 8 -23 15 -7 4 11 3 23 -4 30 -6 6 -11 29 -10 51 l1 41 14 -45 14 -45 -4 55 c-4 67 12 192 26 201 16 10 21 91 7 124 l-13 30 -7 -40 c-8 -43 -1 89 10 190 4 44 10 60 21 60 10 0 17 -14 21 -40 4 -26 7 0 9 75 l4 115 6 -85 6 -85 1 80 c0 44 -3 94 -7 110 l-8 30 -1 -29 c0 -16 -3 -27 -6 -24 -3 2 -2 34 2 69 7 62 8 63 14 24 3 -24 5 -4 5 52 -1 51 -4 93 -8 93 -5 0 -8 -17 -9 -37 -1 -21 -5 -49 -9 -63 -6 -17 -7 -9 -3 25 2 28 8 84 13 125 5 55 8 63 9 31 2 -61 9 -48 21 38 6 40 16 79 24 87 8 7 17 19 19 26 4 10 8 9 17 -2 10 -13 11 -12 6 3 -3 10 -6 23 -6 29 0 6 -9 3 -21 -8 -20 -18 -20 -18 -18 6 1 14 1 43 0 65 -3 36 -4 37 -11 15 -5 -15 -8 -18 -9 -8 -1 22 9 48 19 48 5 0 10 -15 12 -32 2 -18 7 -31 12 -30 5 2 12 -1 15 -7 4 -6 7 5 8 24 1 19 -3 38 -8 41 -5 3 -9 10 -9 15 0 6 3 8 8 6 4 -3 7 36 8 87 1 50 -1 73 -3 51 -2 -22 -11 -45 -20 -52 -10 -8 -14 -23 -11 -47 3 -25 0 -36 -9 -36 -16 0 -16 12 3 130 8 52 15 105 14 118 0 12 6 22 14 22 11 0 13 -7 6 -30 -5 -16 -11 -34 -14 -39 -4 -5 -2 -12 4 -16 5 -3 10 1 10 9 0 8 5 27 10 41 8 22 13 25 25 15 8 -6 22 -9 33 -6 21 7 63 -41 61 -71 0 -11 -7 -4 -16 17 -9 19 -18 29 -20 22 -3 -7 0 -19 7 -26 7 -10 8 -16 0 -21 -5 -3 -9 -14 -9 -23 1 -15 2 -15 6 1 7 26 21 21 21 -8 0 -13 -4 -23 -8 -20 -11 7 -20 -60 -18 -135 1 -62 1 -63 8 -20 l6 45 6 -40 c4 -26 5 -14 5 35 -1 41 2 80 5 86 11 18 21 166 12 173 -5 3 -14 15 -20 26 -18 34 -74 65 -115 65 -37 0 -38 0 -48 -52z m84 -4 c28 -18 39 -41 19 -41 -8 0 -14 4 -14 9 0 4 -7 8 -15 8 -10 0 -12 6 -8 18 6 15 5 15 -10 3 -16 -13 -25 -2 -10 12 9 9 10 9 38 -9z m-85 -443 c0 -22 -4 -43 -10 -46 -6 -4 -10 12 -10 39 0 25 5 46 10 46 6 0 10 -18 10 -39z m-56 -479 c5 -44 4 -62 -3 -57 -6 3 -11 34 -11 67 0 76 5 72 14 -10z m-57 -524 c-2 -13 -4 -3 -4 22 0 25 2 35 4 23 2 -13 2 -33 0 -45z m-10 -110 c-2 -13 -4 -5 -4 17 -1 22 1 32 4 23 2 -10 2 -28 0 -40z"
      ></path>
      <path
        id="p14KZn7dfw"
        d="M1425 4560 c-4 -12 -5 -24 -2 -27 3 -2 8 5 12 17 4 12 5 24 2 27 -3 2 -8 -5 -12 -17z"
      ></path>
      <path
        id="pnAeQRDWi"
        d="M1543 4223 c0 -96 1 -101 8 -48 10 88 10 155 0 155 -5 0 -9 -48 -8 -107z"
      ></path>
      <path
        id="pAWCCwj5z"
        d="M1480 4083 c0 -22 2 -25 10 -13 13 20 13 40 0 40 -5 0 -10 -12 -10 -27z"
      ></path>
      <path
        id="p13QHczJiB"
        d="M1514 4045 c6 -64 6 -65 -16 -62 -16 3 -24 12 -26 28 -2 21 -1 22 8 6 6 -9 15 -15 21 -12 14 9 11 25 -6 25 -8 0 -15 5 -15 12 0 6 -3 8 -7 5 -3 -4 -7 -73 -8 -155 -2 -81 0 -138 2 -127 3 11 10 26 15 33 7 8 7 12 -1 12 -6 0 -11 7 -11 16 0 9 5 12 12 8 8 -5 9 2 5 24 -9 42 2 92 19 92 8 0 14 -8 14 -17 0 -14 -2 -15 -9 -4 -6 10 -11 5 -16 -19 -5 -22 -3 -35 5 -40 8 -5 10 -18 6 -33 -3 -14 -2 -28 3 -31 9 -6 16 50 27 208 6 88 5 96 -11 96 -16 0 -17 -7 -11 -65z"
      ></path>
      <path
        id="pYxgZSQjl"
        d="M1481 3773 c-1 -12 -5 -25 -11 -28 -5 -3 -10 -26 -10 -51 0 -28 4 -43 10 -39 6 3 10 2 10 -4 0 -5 -5 -13 -10 -16 -7 -4 -9 -43 -6 -103 3 -61 2 -89 -4 -77 -7 16 -9 12 -9 -20 0 -22 4 -49 8 -59 7 -17 24 107 38 264 9 110 10 123 6 93 -2 -18 -8 -33 -12 -33 -4 0 -5 15 -3 34 2 19 2 41 -1 48 -3 7 -6 3 -6 -9z"
      ></path>
      <path
        id="pb5EXDR95"
        d="M1318 3582 c-5 -57 2 -142 11 -142 10 0 11 179 1 185 -4 3 -10 -16 -12 -43z"
      ></path>
      <path
        id="p151nnEOz"
        d="M1368 3565 c-6 -30 -3 -43 8 -33 3 4 4 19 2 35 l-3 28 -7 -30z"
      ></path>
      <path
        id="pGqob9N8G"
        d="M1440 3334 c0 -8 -7 -22 -15 -30 -10 -11 -15 -38 -16 -87 -1 -40 -1 -76 0 -80 1 -5 -4 -5 -10 -1 -7 4 -10 26 -7 60 3 30 1 54 -3 54 -9 0 -10 -264 -1 -295 3 -14 9 -1 18 40 7 33 13 69 13 80 1 17 -1 18 -10 5 -8 -12 -9 -11 -6 5 2 11 9 19 15 18 12 -3 18 35 14 91 -2 16 2 32 7 35 14 9 26 121 12 121 -6 0 -11 -7 -11 -16z"
      ></path>
      <path
        id="pv3vBN26y"
        d="M1310 2899 c0 -5 -4 -8 -8 -5 -10 6 -9 -30 1 -40 3 -4 11 5 16 20 13 32 16 33 18 4 3 -28 26 -43 34 -20 4 10 -2 24 -14 35 -22 19 -47 23 -47 6z"
      ></path>
      <path
        id="p1Io9QSIK"
        d="M680 2298 c0 -30 13 -58 26 -58 9 0 14 12 14 35 0 28 -4 35 -20 35 -11 0 -20 -6 -20 -12z"
      ></path>
      <path
        id="pE6dhknyA"
        d="M967 2037 c-58 -31 -92 -42 -137 -45 -42 -3 -60 -8 -60 -18 0 -8 7 -14 15 -14 10 0 15 -10 15 -27 0 -22 2 -25 10 -13 7 11 8 4 6 -24 -2 -21 -10 -42 -17 -47 -10 -6 -4 -9 19 -9 17 0 32 5 32 10 0 6 11 10 25 10 15 0 25 -6 25 -14 0 -19 52 -30 105 -21 l44 6 3 -63 3 -63 38 -3 c22 -2 37 1 37 8 0 6 5 8 10 5 17 -11 11 -66 -20 -170 -16 -55 -30 -119 -30 -141 l0 -42 -67 -4 c-78 -4 -122 -23 -139 -57 -7 -13 -18 -27 -26 -32 -9 -6 -13 -34 -13 -102 0 -76 3 -97 18 -111 9 -10 17 -22 17 -27 0 -16 117 -11 134 7 17 16 68 34 99 34 29 0 31 -28 3 -64 -26 -34 -36 -96 -16 -96 17 0 11 -35 -10 -58 -12 -12 -32 -29 -45 -38 -18 -12 -25 -25 -25 -50 0 -29 5 -36 35 -48 19 -8 35 -18 35 -21 0 -13 -27 -33 -63 -46 -33 -11 -37 -17 -37 -47 0 -23 7 -40 22 -51 28 -23 18 -47 -21 -56 -27 -6 -31 -11 -31 -40 0 -27 7 -38 32 -56 18 -13 50 -40 70 -61 40 -41 68 -49 68 -19 0 10 7 22 16 25 9 4 14 9 11 13 -4 3 -2 12 4 20 9 9 8 13 0 13 -10 0 -13 -7 -10 -26 1 -8 -22 -24 -33 -24 -5 0 -8 5 -8 11 0 5 4 8 9 4 15 -9 25 36 11 49 -10 8 -12 7 -7 -6 8 -23 -7 -32 -23 -14 -9 12 -7 17 7 25 12 6 25 6 34 0 25 -15 34 -10 11 7 -14 10 -32 14 -48 10 -14 -4 -24 -2 -24 4 0 5 -4 10 -8 10 -5 0 -9 -7 -9 -15 0 -8 4 -12 9 -9 4 3 8 0 8 -5 0 -15 -15 -14 -29 3 -12 14 -11 59 2 72 3 4 5 -2 2 -14 -3 -15 1 -19 16 -15 12 3 18 11 15 19 -3 7 0 16 6 20 7 4 7 9 -1 14 -8 5 -7 12 6 26 10 11 15 15 11 10 -3 -4 -4 -15 -1 -22 6 -15 29 -19 35 -6 2 4 14 2 28 -5 l25 -14 -25 2 c-38 2 -50 0 -50 -10 0 -9 12 -11 91 -14 33 -1 45 -5 42 -14 -3 -7 -10 -13 -15 -13 -6 0 -8 -9 -5 -20 5 -21 -7 -27 -18 -9 -4 6 -14 8 -22 5 -9 -4 -22 -1 -30 5 -7 7 -16 9 -19 6 -3 -3 4 -10 15 -17 12 -6 19 -15 16 -21 -4 -5 -1 -9 6 -9 8 0 7 -5 -2 -17 -8 -9 7 -2 34 16 29 20 47 39 47 52 0 11 7 22 15 25 16 6 21 44 7 44 -5 0 -23 -7 -41 -16 -17 -8 -37 -13 -44 -11 -7 3 -5 6 6 6 9 1 17 5 17 11 0 5 15 12 34 15 33 7 34 8 34 58 0 58 17 111 32 102 5 -3 10 -2 10 3 0 6 -11 9 -25 8 -19 -1 -23 -5 -19 -18 10 -33 -8 -41 -22 -10 -8 19 -27 38 -52 50 -37 18 -41 18 -53 3 -30 -35 -42 -70 -35 -102 5 -26 4 -29 -8 -20 -8 6 -16 21 -19 32 -3 12 -3 18 0 15 8 -7 33 41 33 63 0 9 7 25 15 35 17 23 19 36 5 36 -5 0 -10 -9 -10 -19 0 -14 -5 -18 -19 -14 -12 3 -17 11 -14 19 4 12 -1 14 -23 9 -16 -3 -23 -2 -15 1 17 8 61 53 78 80 11 17 12 17 12 2 1 -10 8 -18 18 -18 15 0 14 -2 -2 -20 -17 -19 -17 -23 10 -70 15 -25 15 -25 15 16 0 30 5 44 16 48 9 4 14 9 11 12 -3 3 -2 17 3 29 6 15 5 25 -1 27 -12 4 -17 74 -6 84 13 14 19 -4 7 -25 -7 -13 -7 -21 -1 -21 6 0 8 -6 5 -14 -3 -8 0 -17 5 -21 6 -3 8 -11 5 -17 -4 -7 -2 -8 4 -4 7 4 10 17 8 29 -4 25 35 67 62 68 14 0 13 2 -3 9 -17 7 -17 9 -2 9 24 1 22 17 -3 17 -11 0 -20 -5 -20 -12 0 -12 -32 -44 -45 -44 -5 0 -4 5 2 11 12 12 5 49 -10 49 -11 0 -36 30 -37 45 0 6 5 3 10 -5 8 -12 10 -10 10 9 0 20 -2 21 -15 11 -17 -14 -21 -60 -5 -60 6 0 5 -8 -2 -20 -18 -28 -22 -17 -23 55 0 54 3 65 17 65 9 0 18 -6 21 -12 2 -7 4 5 3 27 -1 38 -2 40 -33 40 -20 0 -38 7 -47 20 -17 22 -20 36 -8 34 4 -1 26 -1 50 0 30 1 42 5 42 16 0 8 5 15 10 15 6 0 10 18 10 40 0 36 -11 52 -23 33 -2 -5 -2 -2 0 6 2 8 -18 35 -44 60 -48 46 -48 47 -38 86 8 28 13 34 18 22 3 -9 2 -19 -3 -22 -19 -12 -9 -44 19 -64 32 -23 51 -27 51 -11 0 6 -7 10 -15 10 -8 0 -15 5 -15 10 0 6 -7 10 -15 10 -8 0 -15 9 -15 20 0 11 7 20 15 20 9 0 18 13 22 32 6 28 7 30 15 13 7 -16 7 -15 3 5 -2 14 -5 35 -5 48 0 12 -4 22 -10 22 -5 0 -10 -18 -10 -39 0 -44 -14 -61 -28 -34 -9 18 -8 27 11 73 6 14 11 34 12 45 1 11 3 38 4 60 l3 40 9 -30 c5 -16 7 -47 4 -68 -4 -25 -2 -36 5 -32 5 3 10 32 10 64 0 67 2 69 92 65 55 -2 56 -2 37 17 -10 10 -22 19 -25 19 -3 0 -17 9 -31 20 -15 11 -29 18 -32 15 -3 -4 1 -10 9 -15 13 -8 12 -10 -2 -10 -25 0 -23 -18 2 -23 17 -4 16 -4 -2 -3 -18 1 -23 7 -23 28 0 31 -10 43 -45 53 -19 5 -21 4 -10 -4 11 -8 4 -10 -27 -7 -24 2 -43 -1 -43 -5 0 -22 -28 -6 -33 19 -3 15 -8 38 -12 52 -5 20 -4 22 4 10 10 -13 12 -13 21 0 9 13 10 13 10 0 0 -9 -5 -21 -12 -28 -9 -9 -9 -12 0 -12 6 0 9 -7 6 -15 -8 -20 6 -19 22 3 13 16 14 16 7 -2 -5 -16 -3 -18 11 -13 10 4 19 7 21 7 2 0 -7 12 -20 26 -14 15 -22 30 -20 35 8 13 -6 60 -16 53 -5 -3 -6 9 -2 27 4 23 3 30 -5 25 -8 -5 -10 2 -6 24 4 19 2 30 -4 30 -6 0 -9 -8 -6 -17 5 -15 4 -16 -5 -3 -10 13 -13 13 -26 -4 -8 -11 -17 -17 -20 -14 -4 3 4 14 17 24 13 11 29 27 37 37 25 31 -37 18 -122 -26z m103 -78 c0 -6 4 -7 10 -4 6 4 7 -1 3 -11 -4 -11 -8 -13 -11 -6 -5 16 -27 15 -42 -2 -6 -8 -30 -16 -53 -18 l-42 -3 63 -15 c65 -15 82 -30 33 -30 -16 0 -41 -4 -55 -10 -16 -6 -27 -6 -31 0 -4 6 -33 10 -66 10 -33 0 -59 4 -59 10 0 6 20 10 44 10 39 0 44 2 39 20 -4 15 2 21 23 27 16 4 35 6 42 5 6 -2 12 2 12 8 0 5 3 10 8 9 18 -3 51 14 46 23 -4 6 3 5 15 -1 11 -7 21 -16 21 -22z m-184 -14 c-18 -9 -37 -13 -50 -8 -18 6 -16 8 14 14 59 11 66 10 36 -6z m275 -158 c-6 -8 -7 -17 -3 -22 4 -4 -3 -4 -16 -1 -15 5 -24 3 -28 -8 -9 -22 -33 -28 -27 -6 4 15 24 27 55 34 3 0 10 4 14 9 13 12 17 8 5 -6z m47 -14 c5 -10 7 -24 5 -30 -3 -7 4 -14 14 -14 16 -1 16 -2 1 -6 -10 -2 -25 3 -34 11 -8 9 -12 16 -8 16 3 0 1 6 -5 13 -11 14 -6 27 10 27 5 0 12 -8 17 -17z m-105 -453 c19 0 58 -40 69 -71 5 -14 3 -19 -8 -19 -10 0 -14 6 -10 15 3 8 1 15 -5 15 -6 0 -7 4 -4 10 3 5 -6 12 -21 16 -19 5 -22 9 -12 15 9 6 3 9 -17 9 -18 0 -25 -3 -18 -8 9 -6 7 -11 -6 -19 -19 -12 -51 0 -38 14 5 4 12 1 17 -7 8 -13 10 -12 10 3 0 20 -45 24 -53 5 -4 -10 -8 -9 -16 2 -7 10 -11 11 -11 3 0 -7 -7 -10 -15 -6 -9 3 -14 7 -12 10 8 8 93 21 112 17 11 -2 28 -4 38 -4z m-152 -43 c-6 -8 -7 -18 -3 -22 4 -5 2 -5 -5 -1 -6 3 -14 2 -18 -4 -4 -6 -10 -8 -15 -5 -12 7 -19 -24 -15 -65 1 -19 3 -41 4 -48 1 -7 6 -10 13 -6 7 5 9 2 6 -7 -3 -8 -9 -21 -13 -30 -5 -14 0 -16 24 -15 17 1 36 7 43 14 6 6 18 12 24 12 7 0 20 8 30 18 13 13 35 17 91 17 72 1 72 1 52 -18 -12 -11 -24 -16 -28 -10 -3 5 -19 10 -36 11 -24 1 -27 0 -15 -9 12 -8 10 -9 -7 -4 -13 3 -23 2 -23 -3 0 -6 -10 -8 -22 -4 -14 3 -19 2 -14 -6 7 -11 3 -14 -26 -16 -7 -1 -16 -5 -19 -9 -10 -14 -55 -17 -73 -4 -11 8 -18 32 -22 80 -7 78 8 127 37 127 11 0 19 5 19 10 0 6 5 10 11 10 8 0 9 -4 0 -13z m101 -72 c-17 -14 -34 -25 -40 -25 -6 0 -13 -6 -15 -12 -3 -7 -6 4 -6 25 l-1 37 46 0 46 0 -30 -25z m113 -278 c-6 -24 -8 -24 -24 -9 -22 21 -16 38 7 20 13 -11 15 -10 9 11 -4 16 -3 21 4 14 6 -6 7 -22 4 -36z m49 -86 c-6 -14 -8 -13 -12 4 -2 11 -9 25 -14 30 -8 7 -8 6 -3 -4 5 -9 4 -12 -3 -7 -16 10 -15 43 1 49 16 6 40 -51 31 -72z m16 -222 c17 -32 18 -42 8 -59 -7 -11 -18 -20 -25 -20 -18 0 -43 42 -50 83 -4 29 -2 36 13 39 26 6 32 2 54 -43z m-145 -8 c-3 -5 -1 -12 5 -16 16 -10 12 -32 -7 -39 -10 -4 -14 -4 -11 0 8 8 -16 34 -31 34 -6 0 -11 5 -11 11 0 6 7 9 15 6 8 -4 17 -2 20 3 4 6 11 10 16 10 6 0 8 -4 4 -9z"
      ></path>
      <path
        id="pmWHlZ5vL"
        d="M926 1888 c3 -5 12 -8 20 -8 9 0 12 -5 8 -11 -5 -9 29 4 44 16 2 2 -15 4 -37 7 -21 2 -37 0 -35 -4z"
      ></path>
      <path
        id="p1CtqOaxj2"
        d="M1382 1693 c-2 -21 2 -24 18 -20 15 4 20 1 18 -11 -2 -12 4 -17 20 -16 15 0 22 -5 22 -18 0 -40 28 -72 55 -62 14 6 16 4 10 -6 -5 -9 -4 -11 3 -6 11 7 17 -18 13 -52 -1 -8 4 -21 11 -30 10 -12 10 -14 1 -8 -9 5 -13 0 -13 -13 0 -12 5 -21 11 -21 8 0 8 -5 -1 -15 -7 -8 -11 -15 -9 -16 34 -7 36 -6 32 20 l-3 26 11 -27 c10 -27 39 -39 39 -17 0 5 -5 7 -12 3 -8 -5 -9 -2 -5 9 9 24 -2 47 -19 40 -8 -3 -14 0 -14 6 0 6 4 11 10 11 5 0 7 7 4 15 -5 12 -10 13 -20 4 -9 -8 -14 -8 -14 -1 0 6 5 14 10 17 12 8 -1 35 -43 87 -16 21 -34 35 -40 31 -6 -3 -7 -1 -4 5 4 5 -15 28 -41 50 l-48 40 -2 -25z"
      ></path>
      <path
        id="pXAEvUy8N"
        d="M1619 1345 c-7 -87 -5 -272 3 -282 5 -7 7 -22 3 -34 -5 -14 -4 -19 4 -15 6 4 11 28 10 54 -1 38 -2 42 -9 22 -8 -24 -8 -24 -9 -2 -1 12 6 25 14 28 11 5 15 22 13 73 l-1 66 -6 -55 -7 -55 -4 58 c-3 31 -2 57 3 57 9 0 7 57 -3 90 -8 25 -8 25 -11 -5z"
      ></path>
      <path
        id="pCuz4gYAu"
        d="M1397 983 c-4 -3 0 -15 10 -25 9 -10 13 -18 10 -18 -3 0 1 -16 9 -35 7 -19 14 -42 13 -52 -1 -10 -6 -2 -13 18 -36 115 -105 101 -176 -35 -44 -84 -47 -119 -10 -131 11 -3 20 -10 20 -15 0 -4 11 -3 25 3 30 14 28 42 -3 41 -12 0 -22 3 -22 8 0 4 -7 8 -15 8 -8 0 -15 5 -15 10 0 6 9 10 20 10 15 0 20 7 20 24 0 14 5 28 10 31 6 3 10 14 10 24 0 10 9 21 20 24 12 3 20 14 20 25 0 17 4 19 28 13 24 -7 27 -12 25 -45 -1 -20 -9 -44 -18 -52 -22 -22 -19 -34 9 -32 14 1 22 7 19 14 -2 7 2 25 10 41 15 28 15 27 12 -22 -3 -38 -7 -50 -19 -49 -10 1 -16 -6 -16 -21 0 -12 -9 -34 -20 -48 l-20 -25 25 -4 c20 -4 23 -2 14 8 -8 9 -5 15 10 24 12 6 21 19 21 30 0 34 30 34 42 0 5 -15 4 176 -2 195 -1 6 -2 12 0 15 8 22 8 50 -1 50 -5 0 -8 -4 -5 -9 4 -5 0 -12 -6 -14 -10 -4 -10 -6 0 -6 7 -1 10 -6 7 -11 -10 -16 -35 8 -28 26 5 14 -8 19 -20 7z m52 -170 c0 -10 -4 -27 -9 -38 -7 -16 -9 -13 -9 18 -1 20 4 37 9 37 6 0 10 -8 9 -17z"
      ></path>
      <path
        id="pJXzmak6X"
        d="M1580 976 c0 -8 5 -18 10 -21 6 -3 10 -21 11 -38 l1 -32 9 30 c4 16 6 39 3 52 -7 25 -34 32 -34 9z"
      ></path>
      <path
        id="p11qYRxxu3"
        d="M1551 873 c-16 -56 -14 -71 5 -47 8 10 13 13 9 7 -3 -7 -2 -13 3 -13 14 0 23 28 11 36 -6 3 -8 17 -5 30 10 40 -12 27 -23 -13z"
      ></path>
      <path
        id="p1HZgnxxux"
        d="M1546 776 c-13 -31 -18 -35 -45 -31 -17 2 -30 0 -29 -3 1 -4 -2 -18 -6 -31 -5 -13 -4 -27 2 -33 6 -6 8 -17 5 -25 -5 -12 -7 -12 -14 -2 -6 10 -12 10 -27 -4 -10 -9 -26 -17 -35 -17 -9 0 -17 -7 -17 -16 0 -8 4 -13 9 -10 5 3 14 -1 21 -9 10 -12 16 -13 26 -4 8 6 14 16 14 21 0 6 -7 4 -17 -3 -14 -12 -16 -12 -11 1 2 8 14 17 26 20 11 3 32 21 45 41 45 67 79 130 74 136 -3 3 -13 -11 -21 -31z m-44 -64 c-7 -2 -12 -10 -12 -18 0 -8 -4 -14 -10 -14 -15 0 -12 17 7 40 12 14 19 16 22 8 2 -6 -1 -14 -7 -16z"
      ></path>
      <path
        id="p12xqoZJFP"
        d="M1115 790 c-8 -13 4 -32 16 -25 12 8 12 35 0 35 -6 0 -13 -4 -16 -10z"
      ></path>
      <path
        id="p134O9jj2"
        d="M1298 569 c-2 -50 -1 -57 10 -42 6 9 12 27 12 40 0 13 4 23 10 23 13 0 1 27 -15 34 -10 3 -14 -10 -17 -55z"
      ></path>
      <path
        id="ptcerexux"
        d="M1387 583 c-4 -3 -7 -15 -7 -26 0 -25 9 -17 15 12 4 22 2 25 -8 14z"
      ></path>
      <path
        id="pcSQr2UJt"
        d="M1348 544 c-5 -4 -8 -16 -8 -28 0 -14 3 -17 11 -9 6 6 9 19 7 28 -1 9 -6 13 -10 9z"
      ></path>
      <path
        id="ppxEvuofR"
        d="M1307 504 c-3 -3 -3 -12 0 -20 3 -8 -2 -16 -10 -20 -9 -3 -18 -13 -21 -22 -4 -9 7 -2 24 16 30 32 38 52 22 52 -5 0 -11 -3 -15 -6z"
      ></path>
      <path
        id="pYhRJ6ThH"
        d="M1130 460 c-8 -5 -11 -12 -7 -17 5 -4 11 -3 15 3 4 6 14 14 22 17 13 5 13 5 0 6 -8 0 -22 -3 -30 -9z"
      ></path>
    </g>
  </g>
  <g
    id="l7eolPL7IAXmxmYvIJroOQy"
    fill="rgb(240,155,114)"
    style="transform: none"
  >
    <g>
      <path
        id="pcqiA5em"
        d="M600 6830 c0 -21 23 -26 68 -14 41 11 26 34 -23 34 -38 0 -45 -3 -45 -20z"
      ></path>
      <path
        id="pmowqfKh8"
        d="M720 6836 c0 -19 51 -31 61 -14 15 23 10 28 -26 28 -23 0 -35 -5 -35 -14z"
      ></path>
      <path
        id="pX6pqEiz9"
        d="M1310 6816 c0 -23 2 -23 40 -14 22 6 40 16 40 24 0 10 -13 14 -40 14 -36 0 -40 -3 -40 -24z"
      ></path>
      <path
        id="ps1GXfWcF"
        d="M1410 6827 c0 -11 12 -18 38 -22 20 -3 52 -8 70 -11 23 -4 34 -1 38 11 9 22 6 24 -74 31 -62 6 -72 5 -72 -9z"
      ></path>
      <path
        id="p1vIVdFTf"
        d="M608 5896 c-27 -20 -22 -26 22 -26 33 0 40 3 40 20 0 24 -35 27 -62 6z"
      ></path>
      <path
        id="peksgFnm1"
        d="M1430 4770 c0 -5 -6 -10 -14 -10 -16 0 -19 -15 -46 -223 -24 -190 -25 -217 -5 -217 16 0 17 8 40 200 17 139 33 230 41 230 35 0 128 -96 137 -141 3 -13 4 3 3 36 l-1 60 -32 3 c-29 3 -33 7 -33 32 0 16 -7 30 -16 34 -25 10 -74 7 -74 -4z"
      ></path>
      <path
        id="p9KwqjLqA"
        d="M1320 4090 c0 -45 23 -57 34 -17 11 41 7 57 -14 57 -17 0 -20 -7 -20 -40z"
      ></path>
      <path
        id="ptQASWku"
        d="M1310 3990 c0 -45 23 -57 34 -17 11 41 7 57 -14 57 -17 0 -20 -7 -20 -40z"
      ></path>
      <path
        id="p1zc5G9sY"
        d="M1300 3895 c0 -40 24 -49 34 -12 10 37 7 47 -14 47 -16 0 -20 -7 -20 -35z"
      ></path>
      <path
        id="p1GfpapLqy"
        d="M1290 3790 c0 -45 23 -57 34 -17 11 41 7 57 -14 57 -17 0 -20 -7 -20 -40z"
      ></path>
      <path
        id="pXEIkS0SJ"
        d="M1280 3695 c0 -49 23 -64 34 -22 12 44 7 67 -14 67 -17 0 -20 -7 -20 -45z"
      ></path>
      <path
        id="ppfuDMcEB"
        d="M1270 3585 c0 -49 23 -64 34 -22 12 44 7 67 -14 67 -17 0 -20 -7 -20 -45z"
      ></path>
      <path
        id="p7irPIZSC"
        d="M1260 3485 c0 -40 24 -49 34 -12 10 37 7 47 -14 47 -16 0 -20 -7 -20 -35z"
      ></path>
      <path
        id="pqiRB6Lk1"
        d="M1250 3385 c0 -40 24 -49 34 -12 10 37 7 47 -14 47 -16 0 -20 -7 -20 -35z"
      ></path>
      <path
        id="pfZbIPePF"
        d="M1240 3275 c0 -40 24 -49 34 -12 10 37 7 47 -14 47 -16 0 -20 -7 -20 -35z"
      ></path>
      <path
        id="pg5rJ1JUK"
        d="M1220 3055 c0 -49 23 -64 34 -22 12 44 7 67 -14 67 -17 0 -20 -7 -20 -45z"
      ></path>
      <path
        id="pjxSwoysm"
        d="M1210 2945 c0 -40 24 -49 34 -12 10 37 7 47 -14 47 -16 0 -20 -7 -20 -35z"
      ></path>
      <path
        id="pXxikENXk"
        d="M808 1856 c-28 -20 -22 -26 27 -26 38 0 45 3 45 20 0 15 -7 20 -27 20 -16 0 -36 -7 -45 -14z"
      ></path>
      <path
        id="prSGtfVKN"
        d="M890 1853 c0 -27 42 -47 82 -40 78 15 73 19 76 -55 l3 -68 34 0 c19 0 35 5 35 10 0 6 7 10 15 10 23 0 19 -36 -19 -167 -50 -172 -49 -169 -93 -177 -81 -14 -93 -18 -93 -31 0 -8 -12 -15 -26 -17 -33 -4 -64 -57 -64 -110 0 -50 26 -52 36 -3 8 43 59 100 103 114 48 15 127 14 160 -4 16 -8 34 -28 41 -45 9 -21 16 -28 23 -21 16 16 -20 96 -55 126 l-31 26 31 107 c49 174 52 221 13 241 -12 7 -26 5 -45 -5 -16 -8 -30 -14 -31 -14 -2 0 -3 27 -3 61 1 71 -10 83 -62 73 -43 -8 -67 -8 -102 1 -23 6 -28 4 -28 -12z"
      ></path>
      <path
        id="pkDlvt0Ha"
        d="M490 1760 c0 -39 1 -40 35 -40 28 0 35 4 35 20 0 11 -7 20 -15 20 -8 0 -15 9 -15 20 0 13 -7 20 -20 20 -17 0 -20 -7 -20 -40z"
      ></path>
      <path
        id="pHKAnfcSB"
        d="M961 1254 c-16 -20 -18 -30 -10 -46 8 -14 7 -25 -5 -42 -12 -20 -13 -27 -2 -41 11 -15 17 -16 49 -6 21 7 37 17 37 22 0 5 5 9 11 9 20 0 99 72 99 91 0 27 -33 41 -66 29 -19 -8 -37 -8 -57 0 -17 5 -31 10 -33 10 -1 0 -12 -12 -23 -26z"
      ></path>
      <path
        id="pXdtlIVbI"
        d="M842 1099 c6 -62 23 -80 80 -86 33 -4 59 1 107 22 73 30 108 30 103 0 -2 -11 -8 -21 -13 -23 -5 -2 -9 -12 -9 -22 0 -10 -9 -20 -20 -23 -29 -7 -29 -77 0 -77 14 0 18 -5 13 -17 -9 -23 -29 -43 -43 -43 -6 0 -13 -7 -16 -15 -4 -8 -12 -15 -20 -15 -9 0 -14 -12 -14 -35 0 -32 3 -35 29 -35 23 0 30 -5 35 -26 8 -31 12 -27 -46 -49 -44 -16 -48 -20 -48 -51 0 -30 3 -34 25 -34 18 0 25 -5 25 -19 0 -20 -25 -51 -41 -51 -5 0 -9 -11 -9 -24 0 -40 12 -86 22 -86 6 0 22 -14 37 -31 21 -23 34 -30 55 -27 l28 3 -33 36 c-19 19 -49 46 -68 59 l-33 23 30 13 c56 23 69 80 25 113 -14 12 -24 22 -22 24 2 1 21 10 41 19 41 19 71 58 66 85 -2 10 -18 25 -36 35 -47 23 -47 22 -7 49 34 23 65 72 65 102 0 9 -7 23 -16 31 -14 14 -13 19 10 48 31 42 41 80 26 107 -16 30 -89 28 -158 -4 -30 -14 -65 -25 -78 -25 -25 0 -48 28 -59 73 -4 15 -14 27 -22 27 -13 0 -15 -10 -11 -51z"
      ></path>
      <path
        id="poX5nSRcn"
        d="M1323 938 c-18 -9 -83 -112 -83 -132 0 -3 9 -6 20 -6 16 0 20 -7 20 -30 0 -20 -5 -30 -15 -30 -8 0 -15 7 -15 15 0 8 -9 15 -20 15 -26 0 -27 -31 -2 -53 24 -22 52 -22 52 -1 0 26 55 73 78 67 16 -4 24 4 41 42 27 62 26 79 -5 104 -30 23 -39 24 -71 9z m57 -68 c0 -22 -3 -40 -7 -40 -5 0 -25 -4 -45 -9 -34 -8 -37 -7 -28 9 6 10 10 28 10 39 0 12 7 21 15 21 8 0 15 5 15 10 0 6 9 10 20 10 17 0 20 -7 20 -40z"
      ></path>
      <path
        id="priNMRshx"
        d="M1156 695 c-37 -28 -34 -124 5 -172 19 -22 83 -16 107 10 28 29 29 57 2 57 -14 0 -20 -7 -20 -21 0 -16 -5 -20 -27 -17 -38 4 -67 59 -51 94 16 34 32 30 47 -11 9 -27 18 -35 37 -35 28 0 29 2 8 43 -34 67 -67 83 -108 52z"
      ></path>
    </g>
  </g>
  <g
    id="l5uS4ecFUUmtUxoee8lOiKW"
    fill="rgb(248,107,31)"
    style="transform: none"
  >
    <g>
      <path
        id="pkWQg5PgK"
        d="M637 5903 c-19 -19 -5 -33 33 -33 33 0 40 3 40 20 0 16 -7 20 -33 20 -19 0 -37 -3 -40 -7z"
      ></path>
      <path
        id="p2wAtV16m"
        d="M1248 5882 c-34 -7 -20 -32 17 -32 27 0 35 4 35 18 0 17 -15 21 -52 14z"
      ></path>
      <path
        id="pESBzI6Gf"
        d="M1073 5173 c-22 -16 -57 -42 -77 -59 -36 -31 -38 -34 -46 -125 -5 -52 -10 -138 -10 -191 l0 -98 154 0 c85 0 157 3 160 8 2 4 8 91 11 193 8 200 7 209 -48 272 -19 21 -33 27 -64 27 -27 0 -53 -9 -80 -27z"
      ></path>
      <path
        id="p15wsqqsUC"
        d="M592 5138 c-39 -29 -74 -60 -77 -68 -9 -21 -25 -221 -25 -307 l0 -73 154 0 c91 0 157 4 161 10 3 5 9 95 12 199 l6 190 -29 38 c-44 59 -50 63 -92 63 -31 0 -53 -10 -110 -52z"
      ></path>
      <path
        id="pZn4NqM8Y"
        d="M1400 4735 c0 -41 24 -49 34 -10 4 14 13 25 21 25 8 0 15 5 15 10 0 6 -16 10 -35 10 -33 0 -35 -2 -35 -35z"
      ></path>
      <path
        id="pTbgPSqeJ"
        d="M1558 4663 c10 -16 22 -35 25 -43 3 -8 6 4 6 28 1 39 -1 42 -25 42 l-25 0 19 -27z"
      ></path>
      <path
        id="pXwZE4E28"
        d="M1380 4625 c0 -40 24 -49 34 -12 10 37 7 47 -14 47 -16 0 -20 -7 -20 -35z"
      ></path>
      <path
        id="p1BwhudBLN"
        d="M630 4395 c0 -35 0 -35 45 -35 45 0 45 0 45 35 0 35 0 35 -45 35 -45 0 -45 0 -45 -35z"
      ></path>
      <path
        id="pfUdSWXvP"
        d="M800 4385 l0 -35 65 0 65 0 0 35 0 35 -65 0 -65 0 0 -35z"
      ></path>
      <path
        id="pqlw58ckO"
        d="M990 4375 c0 -32 2 -35 30 -35 l30 0 0 -940 0 -940 35 0 c29 0 36 4 42 28 4 15 25 103 48 197 37 157 42 170 65 175 18 4 21 8 12 14 -10 6 -12 27 -6 87 6 76 6 79 -15 79 -19 0 -21 -6 -21 -50 0 -47 -2 -50 -25 -50 -21 0 -26 -7 -40 -57 -9 -32 -18 -62 -20 -68 -2 -5 -4 348 -4 786 l-1 797 -31 6 c-17 3 -47 6 -65 6 -32 0 -34 -2 -34 -35z"
      ></path>
      <path
        id="pZgk8S4O0"
        d="M388 4393 c-15 -4 -18 -16 -18 -64 0 -52 2 -59 20 -59 17 0 20 7 20 40 0 22 5 40 10 40 6 0 10 11 10 25 0 25 -7 27 -42 18z"
      ></path>
      <path
        id="pYa5xnkR8"
        d="M1340 4320 c0 -33 3 -40 20 -40 17 0 20 7 20 40 0 33 -3 40 -20 40 -17 0 -20 -7 -20 -40z"
      ></path>
      <path
        id="p1AngJR42P"
        d="M1330 4230 c0 -33 3 -40 20 -40 17 0 20 7 20 40 0 33 -3 40 -20 40 -17 0 -20 -7 -20 -40z"
      ></path>
      <path
        id="p3SvPzsR2"
        d="M1285 3785 c-21 -217 -36 -398 -32 -401 3 -4 12 -4 20 -1 10 4 16 32 21 94 4 48 20 219 37 378 34 343 34 325 11 325 -16 0 -21 -37 -57 -395z"
      ></path>
      <path
        id="p17ZZivFMu"
        d="M390 4118 c0 -12 5 -61 11 -110 10 -75 14 -88 30 -88 23 0 23 11 7 131 -10 75 -14 89 -30 89 -12 0 -18 -7 -18 -22z"
      ></path>
      <path
        id="patnNT2Le"
        d="M434 3774 c3 -9 6 -27 6 -40 0 -17 6 -24 20 -24 17 0 20 7 20 40 0 36 -2 40 -26 40 -20 0 -25 -4 -20 -16z"
      ></path>
      <path
        id="ptiR0BQ4g"
        d="M621 3628 c-18 -114 -31 -237 -31 -295 0 -49 2 -53 24 -53 20 0 24 -6 30 -46 3 -26 6 -71 6 -100 l0 -54 37 0 36 0 -6 107 c-4 58 -7 130 -7 159 0 47 -2 53 -23 56 l-23 3 12 94 c6 51 17 97 23 101 8 4 11 24 9 51 -3 43 -4 44 -39 47 l-36 3 -12 -73z"
      ></path>
      <path
        id="pqmixA72q"
        d="M454 3654 c3 -9 6 -24 6 -35 0 -12 7 -19 20 -19 16 0 20 7 20 35 0 31 -3 35 -26 35 -20 0 -25 -4 -20 -16z"
      ></path>
      <path
        id="pjywqWDXN"
        d="M468 3550 c3 -31 8 -40 23 -40 15 0 19 7 19 40 0 35 -3 40 -23 40 -20 0 -22 -4 -19 -40z"
      ></path>
      <path
        id="p11Nh6gKDK"
        d="M493 3398 c3 -13 18 -101 33 -195 24 -151 30 -173 46 -173 10 0 18 6 18 13 0 6 -12 94 -27 195 -27 177 -29 182 -52 182 -19 0 -22 -4 -18 -22z"
      ></path>
      <path
        id="p18rX5iFJK"
        d="M1240 3310 c0 -36 4 -50 14 -50 17 0 26 22 26 66 0 27 -4 34 -20 34 -17 0 -20 -7 -20 -50z"
      ></path>
      <path
        id="pqKCZbaaU"
        d="M1230 3204 c0 -38 3 -45 18 -42 12 2 18 15 20 46 3 37 1 42 -17 42 -18 0 -21 -6 -21 -46z"
      ></path>
      <path
        id="pruU1tyS3"
        d="M1220 3104 c0 -38 3 -45 18 -42 12 2 18 15 20 46 3 37 1 42 -17 42 -18 0 -21 -6 -21 -46z"
      ></path>
      <path
        id="p1EeDHHzZI"
        d="M660 3010 l0 -50 35 0 35 0 0 50 0 50 -35 0 -35 0 0 -50z"
      ></path>
      <path
        id="pXaLUeBMa"
        d="M563 2967 c3 -7 13 -61 22 -120 18 -107 18 -107 46 -107 28 0 29 1 29 55 0 48 -2 55 -20 55 -16 0 -20 7 -20 34 0 69 -11 96 -37 96 -17 0 -23 -4 -20 -13z"
      ></path>
      <path
        id="p1H5HuO5A2"
        d="M674 2853 c3 -49 12 -136 18 -195 l12 -108 33 0 c20 0 33 5 33 13 0 6 -7 94 -17 195 l-18 182 -34 0 -34 0 7 -87z"
      ></path>
      <path
        id="p2sdLY5MG"
        d="M1371 2766 c-6 -25 -11 -56 -11 -70 0 -14 -4 -26 -10 -26 -5 0 -10 -16 -10 -35 0 -49 23 -45 43 8 33 88 42 134 28 151 -21 25 -28 20 -40 -28z"
      ></path>
      <path
        id="p6TZEBVdM"
        d="M613 2678 c3 -13 13 -66 22 -118 23 -136 105 -584 108 -586 1 -1 14 -5 30 -9 24 -6 27 -5 27 19 0 16 -6 26 -14 26 -8 0 -15 14 -18 35 -4 33 -2 35 24 35 27 0 28 2 28 48 0 26 -10 129 -22 230 l-22 182 -35 0 -34 0 6 -75 c4 -41 10 -94 13 -117 4 -24 4 -40 0 -37 -11 10 -46 210 -53 302 l-6 87 -30 0 c-25 0 -28 -3 -24 -22z"
      ></path>
      <path
        id="pJs4sIjtR"
        d="M1310 2550 c0 -49 23 -54 39 -9 15 45 14 49 -14 49 -22 0 -25 -4 -25 -40z"
      ></path>
      <path
        id="pbzlNH6CT"
        d="M1240 2445 c0 -8 -9 -15 -20 -15 -16 0 -20 -7 -20 -35 0 -26 4 -35 18 -36 10 0 12 -3 5 -6 -7 -2 -13 -18 -13 -34 0 -18 -5 -29 -14 -29 -15 0 -26 -21 -26 -51 0 -10 -7 -19 -15 -19 -8 0 -15 -9 -15 -20 0 -11 -7 -20 -15 -20 -11 0 -15 -11 -15 -36 0 -47 16 -41 59 22 33 49 141 266 141 284 0 6 -16 10 -35 10 -24 0 -35 -5 -35 -15z"
      ></path>
      <path
        id="p6JUNRt7p"
        d="M900 1995 c0 -28 6 -30 44 -15 39 15 33 40 -9 40 -31 0 -35 -3 -35 -25z"
      ></path>
      <path
        id="pCQjWUuGY"
        d="M1140 1726 c0 -20 5 -26 21 -26 15 0 20 5 17 22 -5 34 -38 37 -38 4z"
      ></path>
      <path
        id="pmVZeQiT1"
        d="M1140 1625 c0 -40 24 -49 34 -12 10 37 7 47 -14 47 -16 0 -20 -7 -20 -35z"
      ></path>
      <path
        id="p1Fb5iDYn3"
        d="M1090 1445 c0 -22 5 -35 13 -35 8 0 18 16 24 35 11 33 10 35 -13 35 -21 0 -24 -5 -24 -35z"
      ></path>
      <path
        id="pTvi3ufT"
        d="M1060 1364 c0 -32 29 -30 41 4 7 19 5 22 -16 22 -20 0 -25 -5 -25 -26z"
      ></path>
      <path
        id="p2I6DO4LU"
        d="M890 1295 l0 -34 26 24 c15 14 31 25 35 25 5 0 9 5 9 10 0 6 -16 10 -35 10 -33 0 -35 -2 -35 -35z"
      ></path>
      <path
        id="pEiuqO6cB"
        d="M890 1035 c0 -22 4 -25 35 -25 29 0 35 4 35 21 0 11 -4 18 -9 15 -5 -4 -21 -2 -35 4 -24 9 -26 7 -26 -15z"
      ></path>
      <path
        id="pADoqlMQL"
        d="M1020 775 c0 -34 1 -35 38 -34 36 1 36 1 10 11 l-27 9 27 24 27 24 -37 1 c-37 0 -38 -1 -38 -35z"
      ></path>
      <path
        id="p10q9FwPZ5"
        d="M1183 703 c-28 -11 -13 -33 22 -33 39 0 46 14 16 30 -11 5 -21 10 -23 9 -2 0 -9 -3 -15 -6z"
      ></path>
      <path
        id="p3JnrbSOF"
        d="M970 605 c0 -24 5 -35 15 -35 8 0 15 -4 15 -10 0 -5 14 -10 30 -10 37 0 38 14 4 36 -22 15 -23 19 -10 26 27 15 18 28 -19 28 -33 0 -35 -2 -35 -35z"
      ></path>
      <path
        id="pM6EykgXQ"
        d="M1250 595 c0 -28 4 -35 20 -35 22 0 26 20 10 51 -16 30 -30 23 -30 -16z"
      ></path>
      <path
        id="plR9pqmYQ"
        d="M1010 495 c0 -29 12 -32 34 -9 23 22 20 34 -9 34 -20 0 -25 -5 -25 -25z"
      ></path>
    </g>
  </g>
  <g id="lTguGv5uAobXMRxlQXIC5B" fill="rgb(254,115,3)" style="transform: none">
    <g>
      <path
        id="psf5e2pF9"
        d="M628 5902 c-10 -2 -18 -10 -18 -18 0 -10 12 -14 40 -14 31 0 40 4 40 18 0 17 -25 23 -62 14z"
      ></path>
      <path
        id="pcH7dBsbB"
        d="M490 4415 c0 -11 -12 -15 -45 -15 -26 0 -45 -5 -45 -11 0 -6 -6 -9 -13 -6 -10 4 -12 -19 -11 -103 1 -59 5 -123 10 -142 9 -40 13 -83 13 -122 0 -15 6 -34 12 -42 6 -7 8 -17 5 -23 -6 -9 11 -153 21 -181 3 -8 7 -35 9 -59 2 -25 6 -52 10 -60 3 -9 8 -29 10 -46 17 -162 26 -215 35 -215 5 0 7 -11 3 -24 -3 -14 -2 -31 2 -38 5 -7 7 -25 5 -40 -1 -16 2 -28 7 -28 5 0 9 -12 10 -27 0 -16 3 -44 6 -63 4 -19 8 -46 10 -60 1 -14 4 -27 5 -30 1 -3 4 -29 7 -59 2 -29 8 -58 11 -65 4 -6 6 -19 5 -29 -2 -9 1 -17 5 -17 5 0 9 -26 10 -57 1 -32 6 -59 12 -61 6 -2 9 -8 5 -13 -3 -5 0 -44 7 -87 11 -67 14 -73 21 -47 5 21 6 12 3 -27 -2 -31 -1 -59 3 -63 4 -3 7 -20 9 -38 1 -18 4 -43 7 -57 3 -14 8 -41 11 -60 4 -19 8 -46 11 -60 3 -14 5 -33 5 -43 0 -9 3 -17 7 -17 4 0 8 -24 9 -52 1 -29 6 -54 11 -56 5 -1 6 -16 4 -32 -2 -17 0 -30 4 -30 5 0 10 -12 11 -27 1 -16 3 -39 6 -53 2 -14 5 -33 6 -44 1 -12 6 -16 16 -12 8 3 15 1 15 -5 0 -16 152 -7 158 9 2 7 8 10 13 6 5 -3 36 9 70 27 60 32 131 102 153 149 6 14 19 34 28 44 10 10 15 23 12 28 -3 4 0 8 6 8 6 0 8 5 5 10 -3 6 -2 10 4 10 9 0 21 26 20 44 0 5 4 12 10 16 6 3 13 17 16 29 2 13 9 29 15 35 5 7 7 16 3 19 -3 4 -2 7 4 7 12 0 59 118 55 137 -2 7 1 13 7 13 7 0 18 29 26 70 0 3 7 15 14 28 7 13 10 30 7 38 -3 8 -1 14 3 14 5 0 7 10 3 22 -3 15 -2 19 7 14 8 -6 11 0 8 19 -4 31 -31 55 -62 55 -12 0 -43 14 -69 30 -44 28 -47 34 -46 68 3 61 1 72 -15 72 -10 0 -15 -10 -15 -30 0 -25 -4 -30 -25 -30 -20 0 -26 -7 -34 -37 -42 -159 -39 -204 -40 680 -1 455 -2 827 -3 827 -44 5 -503 30 -550 30 -54 0 -68 -3 -68 -15z m398 -32 c-10 -2 -28 -2 -40 0 -13 2 -5 4 17 4 22 1 32 -1 23 -4z m202 -953 c0 -513 -2 -935 -5 -938 -3 -3 -5 419 -5 938 0 519 2 941 5 938 3 -2 5 -424 5 -938z m-463 -102 c-2 -13 -4 -3 -4 22 0 25 2 35 4 23 2 -13 2 -33 0 -45z m50 -50 c-2 -18 -4 -4 -4 32 0 36 2 50 4 33 2 -18 2 -48 0 -65z m10 -150 c-2 -13 -4 -3 -4 22 0 25 2 35 4 23 2 -13 2 -33 0 -45z m8 -453 c14 -137 30 -279 35 -315 26 -177 -12 -63 -45 137 -22 131 -27 196 -30 412 -3 215 -2 237 6 136 5 -66 20 -232 34 -370z"
      ></path>
      <path
        id="pNFFeLSka"
        d="M1350 4385 c0 -40 24 -49 34 -12 10 37 7 47 -14 47 -16 0 -20 -7 -20 -35z"
      ></path>
      <path
        id="pmRzJ81B5"
        d="M1340 4318 c0 -13 -3 -53 -7 -90 -5 -59 -4 -68 11 -68 9 0 17 8 18 18 0 9 2 28 4 42 12 118 12 120 -7 120 -13 0 -19 -7 -19 -22z"
      ></path>
      <path
        id="pMGmmYKkw"
        d="M1320 4105 c0 -37 24 -50 32 -17 6 27 -2 52 -18 52 -9 0 -14 -11 -14 -35z"
      ></path>
      <path
        id="p1FjjbykMi"
        d="M1300 3905 c0 -37 24 -50 32 -17 6 27 -2 52 -18 52 -9 0 -14 -11 -14 -35z"
      ></path>
      <path
        id="p6bMzTzzY"
        d="M1290 3805 c0 -37 24 -50 32 -17 6 27 -2 52 -18 52 -9 0 -14 -11 -14 -35z"
      ></path>
      <path
        id="pxLeEcW1A"
        d="M1260 3500 c0 -27 4 -40 14 -40 16 0 26 32 19 60 -10 37 -33 23 -33 -20z"
      ></path>
      <path
        id="pa64NTKIF"
        d="M1250 3400 c0 -27 4 -40 14 -40 16 0 26 32 19 60 -10 37 -33 23 -33 -20z"
      ></path>
      <path
        id="pstDeXOLY"
        d="M1240 3285 c0 -37 24 -50 32 -17 6 27 -2 52 -18 52 -9 0 -14 -11 -14 -35z"
      ></path>
      <path
        id="pQQQVTtvL"
        d="M1230 3180 c0 -27 4 -40 14 -40 16 0 26 32 19 60 -10 37 -33 23 -33 -20z"
      ></path>
      <path
        id="pOdOsviDG"
        d="M1220 3080 c0 -43 23 -57 33 -20 7 28 -3 60 -19 60 -10 0 -14 -13 -14 -40z"
      ></path>
    </g>
  </g>
  <g id="l2AjZoNh1xniyVaj5fY3DTl" fill="rgb(206,87,23)" style="transform: none">
    <g>
      <path
        id="p2UAG8Ra3"
        d="M590 6830 c0 -21 10 -24 48 -14 36 10 27 34 -13 34 -28 0 -35 -4 -35 -20z"
      ></path>
      <path
        id="pdCmY7sKG"
        d="M1440 6826 c0 -13 28 -26 58 -26 6 0 12 9 12 20 0 16 -7 20 -35 20 -23 0 -35 -5 -35 -14z"
      ></path>
      <path
        id="pIwH9GvH8"
        d="M610 5896 c-122 -22 -110 7 -110 -270 0 -132 -3 -412 -7 -622 l-6 -381 129 -7 c71 -4 230 -16 354 -26 124 -11 248 -20 276 -20 l52 0 36 108 c20 59 39 113 41 120 7 20 30 8 27 -14 -1 -10 -11 -82 -22 -159 -11 -77 -23 -159 -26 -182 l-5 -43 -65 0 -64 0 0 -35 0 -35 79 0 79 0 11 98 c18 148 42 305 47 314 10 17 35 7 76 -29 22 -21 49 -50 58 -66 17 -27 17 -26 23 75 4 57 10 340 13 629 l7 527 -93 7 c-50 4 -152 4 -225 0 l-132 -7 -7 -61 c-3 -34 -9 -148 -12 -254 l-7 -191 -56 -6 c-31 -3 -76 -7 -101 -8 l-45 -3 -7 65 c-3 36 -11 153 -18 260 -8 146 -14 198 -25 209 -20 21 -178 24 -275 7z m581 -758 c49 -57 52 -73 43 -245 l-9 -158 -127 -3 -128 -3 0 68 c0 37 5 110 10 162 8 91 10 94 46 125 50 42 115 86 127 86 5 0 22 -15 38 -32z m-467 10 c6 -7 25 -30 40 -51 l29 -38 -7 -161 c-3 -88 -9 -164 -12 -169 -3 -5 -61 -9 -130 -9 l-124 0 0 43 c0 63 18 260 25 277 6 16 143 120 157 120 5 0 15 -6 22 -12z"
      ></path>
      <path
        id="p1B9LNjc8h"
        d="M660 4416 c0 -18 31 -26 103 -26 50 0 57 2 57 20 0 18 -7 20 -80 20 -61 0 -80 -3 -80 -14z"
      ></path>
      <path
        id="p1FJ5zSJVf"
        d="M870 4406 c0 -17 31 -26 93 -26 40 0 47 3 47 20 0 18 -7 20 -70 20 -53 0 -70 -3 -70 -14z"
      ></path>
      <path
        id="pmenmTJnr"
        d="M1020 4395 c0 -8 14 -17 35 -21 20 -3 35 -12 35 -20 0 -10 13 -14 40 -14 39 0 40 1 40 35 l0 35 -75 0 c-59 0 -75 -3 -75 -15z"
      ></path>
      <path
        id="p1BwXR7uBi"
        d="M838 1863 c-10 -2 -18 -11 -18 -19 0 -10 13 -14 44 -14 26 0 46 -5 48 -12 4 -10 19 -10 66 -2 34 5 62 6 62 2 0 -4 9 -8 20 -8 24 0 27 32 5 50 -11 9 -25 9 -63 -3 -41 -12 -52 -12 -67 0 -18 13 -62 16 -97 6z"
      ></path>
      <path
        id="p18uga2P6d"
        d="M1040 1730 c0 -37 2 -40 26 -40 22 0 100 18 112 25 1 1 0 10 -4 19 -8 20 -43 21 -72 0 -21 -14 -22 -14 -22 10 0 19 -5 26 -20 26 -17 0 -20 -7 -20 -40z"
      ></path>
      <path
        id="pj33jDoLj"
        d="M1129 1595 c-7 -41 -17 -75 -21 -75 -4 0 -8 -16 -8 -35 0 -19 -4 -35 -10 -35 -5 0 -13 -18 -16 -40 -6 -36 -9 -40 -36 -40 -16 0 -49 -5 -74 -11 -37 -10 -44 -15 -44 -35 0 -20 -5 -24 -30 -24 -23 0 -30 -4 -30 -20 0 -11 -4 -20 -10 -20 -5 0 -10 -16 -10 -35 0 -42 24 -48 34 -9 17 65 58 97 148 114 28 6 57 15 64 21 19 15 93 258 94 307 0 6 -8 12 -19 12 -15 0 -21 -13 -32 -75z"
      ></path>
      <path
        id="pwJOvmHV"
        d="M840 1095 c0 -30 3 -35 24 -35 23 0 24 2 13 35 -6 19 -16 35 -24 35 -8 0 -13 -13 -13 -35z"
      ></path>
      <path
        id="pHCAdOkv0"
        d="M1003 1067 c-46 -18 -83 -38 -83 -44 0 -21 56 -15 120 12 79 33 94 33 85 -2 -3 -15 -11 -31 -17 -34 -5 -3 -8 -21 -6 -40 l3 -34 33 44 c53 72 40 132 -30 131 -13 -1 -60 -15 -105 -33z"
      ></path>
      <path
        id="pEReBipxy"
        d="M1117 923 c-4 -3 -7 -15 -7 -25 0 -10 -11 -29 -25 -42 -14 -13 -25 -31 -25 -40 0 -11 -9 -16 -30 -16 -28 0 -30 -3 -30 -35 0 -31 3 -35 40 -46 22 -7 40 -15 40 -18 -1 -16 -28 -38 -55 -45 -16 -4 -33 -13 -37 -19 -12 -19 -9 -77 3 -77 16 0 38 -31 39 -52 0 -24 17 -23 30 2 15 29 5 55 -31 78 l-30 19 41 12 c52 16 80 43 80 80 0 24 -7 32 -41 48 l-41 19 42 28 c49 32 76 86 60 116 -12 22 -14 23 -23 13z"
      ></path>
      <path
        id="pk5IL60Sf"
        d="M1237 805 c-19 -29 -26 -51 -22 -64 8 -27 35 -15 35 15 0 15 6 24 15 24 10 0 15 11 15 35 0 19 -3 35 -7 35 -5 0 -21 -20 -36 -45z"
      ></path>
      <path
        id="prusk9ACz"
        d="M1260 720 c0 -16 5 -21 23 -18 12 2 22 10 22 18 0 8 -10 16 -22 18 -18 3 -23 -2 -23 -18z"
      ></path>
      <path
        id="p15Jt24Nhp"
        d="M1169 696 c-30 -15 -44 -53 -35 -99 11 -58 36 -49 36 13 0 28 4 50 9 50 5 0 16 3 25 6 13 5 16 -1 16 -25 0 -17 5 -31 10 -31 16 0 11 -47 -6 -54 -9 -3 -29 -6 -46 -6 -30 0 -31 0 -13 -20 25 -28 70 -26 101 6 30 29 28 50 -13 118 -30 50 -50 59 -84 42z"
      ></path>
      <path
        id="pytughpeP"
        d="M952 453 c2 -31 7 -39 26 -41 12 -2 22 -10 22 -18 0 -10 12 -14 38 -14 l37 1 -44 38 c-42 36 -44 39 -23 45 32 10 17 26 -24 26 -35 0 -35 -1 -32 -37z"
      ></path>
      <path
        id="p1B9n7rKBC"
        d="M1090 327 c0 -32 3 -37 24 -37 19 0 23 4 19 19 -3 11 -14 27 -24 37 -18 17 -19 16 -19 -19z"
      ></path>
      <path
        id="p1HSOCLOXF"
        d="M970 125 c0 -31 3 -35 26 -35 21 0 24 4 19 20 -5 14 -2 20 9 20 9 0 16 7 16 15 0 10 -11 15 -35 15 -33 0 -35 -2 -35 -35z"
      ></path>
    </g>
  </g>
  <g id="l5EFDmwIjpP8OSplGMCkp3L" fill="rgb(231,78,0)" style="transform: none">
    <g>
      <path
        id="p0D2ePFNz"
        d="M1233 4870 c0 -25 2 -35 4 -22 2 12 2 32 0 45 -2 12 -4 2 -4 -23z"
      ></path>
      <path
        id="p15zTccsbp"
        d="M1060 4390 c0 -5 15 -11 33 -11 17 -1 24 -3 15 -6 -17 -4 -18 -57 -17 -931 l0 -927 40 165 c53 225 55 228 82 223 22 -4 23 -3 46 254 29 330 109 1128 116 1170 l6 32 -68 4 -68 3 68 2 c160 5 16 32 -170 32 -49 0 -83 -4 -83 -10z"
      ></path>
      <path
        id="p3wq7GkwQ"
        d="M653 3580 c-35 -220 -42 -695 -14 -975 24 -234 74 -416 127 -466 l24 -23 -5 30 c-5 32 -35 285 -59 509 -31 279 -48 525 -55 760 -6 233 -6 238 -18 165z"
      ></path>
    </g>
  </g>
  <g id="l79puC0ceBFrT5Vh6WFhOLM" fill="rgb(173,78,24)" style="transform: none">
    <g>
      <path
        id="pXSQTCDoA"
        d="M569 6842 c-10 -4 -14 -13 -10 -23 5 -12 14 -13 49 -6 52 10 59 37 10 36 -18 0 -40 -3 -49 -7z"
      ></path>
      <path
        id="pvoNrTxjN"
        d="M1310 6819 c0 -17 4 -20 23 -15 12 3 25 6 30 6 4 0 7 7 7 15 0 10 -10 15 -30 15 -24 0 -30 -4 -30 -21z"
      ></path>
      <path
        id="p15S0nXdZL"
        d="M1450 6827 c0 -23 90 -41 109 -22 20 20 14 23 -52 31 -48 6 -57 4 -57 -9z"
      ></path>
      <path
        id="p1Ep4kH6lO"
        d="M1358 4848 c-7 -13 -29 -72 -50 -132 -21 -60 -40 -111 -42 -114 -3 -2 -119 5 -258 17 -139 11 -293 23 -343 26 -49 4 -109 8 -132 10 l-43 4 0 -130 0 -129 128 0 c70 -1 190 -5 267 -10 188 -13 495 -24 495 -19 0 16 33 266 41 317 12 69 26 77 77 45 26 -17 25 -16 -8 27 -88 114 -109 128 -132 88z"
      ></path>
      <path
        id="p18S8wRu4x"
        d="M865 1865 c-5 -2 -27 -6 -47 -10 -25 -4 -38 -11 -38 -21 0 -13 11 -15 75 -9 57 6 75 4 75 -5 0 -10 14 -11 55 -6 35 4 55 2 55 -4 0 -5 9 -10 20 -10 20 0 25 15 14 44 -7 18 -43 21 -94 6 -22 -6 -36 -6 -40 0 -7 11 -59 21 -75 15z"
      ></path>
      <path
        id="pGK2dErHv"
        d="M480 1755 c0 -33 2 -35 35 -35 29 0 35 4 35 21 0 15 -5 19 -16 15 -12 -4 -14 -1 -9 14 5 16 2 20 -19 20 -23 0 -26 -4 -26 -35z"
      ></path>
      <path
        id="pCBOpysra"
        d="M1040 1730 c0 -49 1 -50 29 -50 45 0 61 10 61 37 0 16 -4 23 -12 20 -50 -20 -48 -21 -42 12 6 27 4 31 -15 31 -19 0 -21 -6 -21 -50z"
      ></path>
      <path
        id="pFll1LayK"
        d="M1140 1720 c0 -23 4 -30 20 -30 23 0 27 29 8 48 -19 19 -28 14 -28 -18z"
      ></path>
      <path
        id="pohEsYZN0"
        d="M1127 1603 c-9 -43 -17 -86 -17 -95 0 -10 -4 -18 -8 -18 -10 0 -42 -98 -42 -128 0 -12 6 -22 14 -22 15 0 62 131 91 252 19 81 19 88 -3 88 -13 0 -21 -17 -35 -77z"
      ></path>
      <path
        id="pYnEwfQIe"
        d="M166 1478 c-10 -38 -7 -48 14 -48 16 0 20 7 20 35 0 40 -24 49 -34 13z"
      ></path>
      <path
        id="pygTfPaCW"
        d="M963 1363 c-13 -2 -23 -9 -23 -14 0 -5 -9 -9 -20 -9 -15 0 -20 -7 -20 -25 0 -20 -5 -25 -25 -25 -22 0 -25 -4 -25 -35 0 -19 -4 -35 -10 -35 -6 0 -10 -27 -10 -60 0 -53 2 -60 20 -60 18 0 20 7 20 60 0 98 38 147 133 171 85 21 49 49 -40 32z"
      ></path>
      <path
        id="pgLc1OWZC"
        d="M1088 1093 c-31 -8 -19 -30 20 -37 67 -11 78 -4 46 28 -15 16 -32 18 -66 9z"
      ></path>
      <path
        id="pddTkVUNd"
        d="M880 1040 l0 -30 60 0 c57 0 60 1 60 24 0 23 -2 24 -34 14 -28 -9 -40 -8 -60 6 -26 16 -26 16 -26 -14z"
      ></path>
      <path
        id="pV9zMjj2j"
        d="M1110 1007 c0 -7 -9 -18 -20 -25 -24 -15 -28 -77 -5 -86 8 -3 15 -15 15 -26 0 -11 -7 -20 -15 -20 -8 0 -15 -7 -15 -15 0 -8 -9 -15 -20 -15 -11 0 -20 -7 -20 -15 0 -8 -7 -15 -15 -15 -10 0 -15 -11 -15 -35 0 -34 1 -35 40 -35 46 0 56 24 14 34 l-26 7 38 25 c57 39 74 64 71 104 -1 27 -6 34 -20 32 -15 -3 -12 5 13 39 36 51 37 59 5 59 -14 0 -25 -6 -25 -13z"
      ></path>
      <path
        id="pU30emTiP"
        d="M1303 918 c-34 -38 -36 -58 -8 -58 18 0 25 5 25 20 0 13 7 20 20 20 13 0 20 7 20 20 0 27 -31 26 -57 -2z"
      ></path>
      <path
        id="pjsYTpudU"
        d="M1376 893 c-14 -88 3 -113 30 -46 12 27 13 42 5 60 -15 33 -27 28 -35 -14z"
      ></path>
      <path
        id="pdOVahZ71"
        d="M70 828 c0 -30 13 -58 26 -58 9 0 14 12 14 35 0 28 -4 35 -20 35 -11 0 -20 -6 -20 -12z"
      ></path>
      <path
        id="p6CxltPPW"
        d="M1238 803 c-28 -32 -31 -60 -9 -82 12 -12 26 -21 31 -21 12 0 13 17 1 24 -5 3 -6 26 -3 51 5 50 2 53 -20 28z"
      ></path>
      <path
        id="polx5zUxv"
        d="M1080 690 c0 -13 -7 -20 -20 -20 -11 0 -20 -4 -20 -10 0 -5 -13 -10 -30 -10 -28 0 -30 -3 -30 -35 0 -31 3 -35 27 -35 25 0 26 1 8 14 -17 12 -16 14 21 26 21 7 49 22 62 33 28 26 29 57 2 57 -13 0 -20 -7 -20 -20z"
      ></path>
      <path
        id="p3aNMoviy"
        d="M1190 682 c0 -10 9 -28 20 -40 11 -12 20 -28 20 -37 0 -9 9 -15 25 -15 14 0 25 2 25 4 0 2 -11 27 -26 55 -17 35 -31 51 -45 51 -12 0 -19 -7 -19 -18z"
      ></path>
      <path
        id="p1AwfOeaVP"
        d="M1136 654 c-8 -32 1 -81 20 -111 23 -36 37 -28 30 15 -4 20 -9 56 -12 80 -7 47 -28 57 -38 16z"
      ></path>
      <path
        id="pMveR6rMa"
        d="M1030 541 c0 -24 -5 -30 -30 -34 -29 -6 -30 -9 -30 -57 0 -42 3 -50 19 -50 10 0 21 -9 24 -20 3 -13 14 -20 30 -20 21 0 26 -6 29 -27 2 -22 9 -29 31 -31 15 -2 27 1 27 7 0 17 -65 85 -110 116 l-40 28 32 16 c40 20 61 57 47 83 -15 27 -29 22 -29 -11z"
      ></path>
      <path
        id="piNi1kqSl"
        d="M1230 545 c0 -29 12 -32 34 -9 23 22 20 34 -9 34 -20 0 -25 -5 -25 -25z"
      ></path>
      <path
        id="p13qQKEuU7"
        d="M180 534 c0 -12 34 -64 42 -64 4 0 8 16 8 35 0 31 -3 35 -25 35 -14 0 -25 -3 -25 -6z"
      ></path>
      <path
        id="p1EcJZ6LJ5"
        d="M970 143 c0 -48 11 -73 31 -73 22 0 26 29 7 48 -9 9 -6 12 15 12 20 0 27 5 27 20 0 17 -7 20 -40 20 -37 0 -40 -2 -40 -27z"
      ></path>
      <path
        id="pSGlEnkeO"
        d="M790 105 c0 -24 5 -35 15 -35 8 0 15 7 15 16 0 11 6 14 20 9 16 -5 20 -2 20 19 0 23 -4 26 -35 26 -33 0 -35 -2 -35 -35z"
      ></path>
    </g>
  </g>
  <g id="lxRdLyRQPJCKh1ZhEvG4Gc" fill="rgb(166,67,8)" style="transform: none">
    <g>
      <path
        id="p1EVp3vD7A"
        d="M494 4530 c0 -69 1 -97 3 -62 2 34 2 90 0 125 -2 34 -3 6 -3 -63z"
      ></path>
      <path
        id="p1yBSLhwx"
        d="M900 1841 c0 -13 10 -20 31 -25 59 -12 79 -8 79 15 0 19 -4 20 -35 15 -22 -4 -35 -3 -35 4 0 5 -9 10 -20 10 -13 0 -20 -7 -20 -19z"
      ></path>
      <path
        id="p7NNSUUnC"
        d="M1040 1810 c0 -43 3 -50 20 -50 16 0 20 7 20 31 0 34 -15 69 -30 69 -6 0 -10 -22 -10 -50z"
      ></path>
      <path
        id="pjrR1B9Ih"
        d="M470 1765 c0 -19 5 -35 10 -35 6 0 10 -7 10 -15 0 -10 10 -15 29 -15 47 0 61 10 61 42 0 20 -4 29 -12 25 -7 -2 -24 -8 -38 -12 -20 -6 -23 -5 -12 6 21 23 14 39 -18 39 -28 0 -30 -3 -30 -35z"
      ></path>
      <path
        id="peafWQedc"
        d="M380 1745 c0 -33 2 -35 35 -35 33 0 35 2 35 35 0 33 -2 35 -35 35 -33 0 -35 -2 -35 -35z"
      ></path>
      <path
        id="pU2BpZCIx"
        d="M307 1728 c-60 -54 -64 -88 -12 -88 32 0 35 2 35 30 0 23 4 30 20 30 16 0 20 7 20 35 0 19 -3 35 -8 35 -4 0 -29 -19 -55 -42z"
      ></path>
      <path
        id="pf5GjjXtB"
        d="M1118 1739 c-24 -14 -23 -29 2 -29 17 0 20 -7 20 -45 0 -57 26 -63 36 -8 12 66 -16 107 -58 82z"
      ></path>
      <path
        id="p1Gp5ohYOi"
        d="M206 1601 c-3 -4 -10 -20 -15 -35 -10 -24 -9 -26 19 -26 28 0 30 3 30 35 0 24 -5 35 -14 35 -8 0 -17 -4 -20 -9z"
      ></path>
      <path
        id="ppKPmYXiz"
        d="M1120 1565 c0 -40 24 -49 34 -12 10 37 7 47 -14 47 -16 0 -20 -7 -20 -35z"
      ></path>
      <path
        id="pcF4DSFtL"
        d="M162 1380 c4 -44 3 -45 -29 -27 -13 7 -41 11 -63 9 -38 -4 -40 -5 -40 -39 l0 -36 53 7 c28 3 62 6 75 6 17 0 22 6 22 25 0 16 6 25 15 25 10 0 15 11 15 35 0 31 -3 35 -26 35 -24 0 -26 -3 -22 -40z"
      ></path>
      <path
        id="phobS8E8n"
        d="M953 1363 c-17 -3 -23 -11 -23 -30 0 -16 4 -23 13 -19 6 2 31 10 55 17 79 22 41 49 -45 32z"
      ></path>
      <path
        id="p17hOYupus"
        d="M840 1235 c0 -22 5 -35 13 -35 8 0 18 16 24 35 11 33 10 35 -13 35 -21 0 -24 -5 -24 -35z"
      ></path>
      <path
        id="pffSaKDFe"
        d="M65 1200 c3 -5 19 -19 35 -30 l30 -21 0 30 c0 29 -3 31 -36 31 -20 0 -33 -4 -29 -10z"
      ></path>
      <path
        id="pyPNgJoL"
        d="M840 1085 c0 -32 3 -35 29 -35 l28 0 -16 35 c-21 45 -41 45 -41 0z"
      ></path>
      <path
        id="pWYZIA0vL"
        d="M1098 1092 c-27 -5 -22 -32 6 -32 22 0 23 -3 18 -45 -5 -52 6 -58 31 -16 19 32 22 61 7 61 -5 0 -10 6 -10 14 0 15 -25 24 -52 18z"
      ></path>
      <path
        id="pZLjV4b9R"
        d="M1013 1065 c-61 -28 -68 -45 -18 -45 19 0 35 5 35 10 0 6 9 10 20 10 15 0 20 7 20 25 0 14 -1 25 -2 25 -2 0 -27 -11 -55 -25z"
      ></path>
      <path
        id="pkR1gA1b6"
        d="M1090 843 l1 -38 24 28 c32 36 31 47 0 47 -22 0 -25 -4 -25 -37z"
      ></path>
      <path
        id="p13WSpmxzU"
        d="M80 788 c0 -30 13 -58 26 -58 9 0 14 12 14 35 0 28 -4 35 -20 35 -11 0 -20 -6 -20 -12z"
      ></path>
      <path
        id="pjBcmVAkI"
        d="M1222 774 c-12 -22 -4 -54 14 -54 9 0 14 12 14 35 0 37 -13 46 -28 19z"
      ></path>
      <path
        id="p1ETOL6CxB"
        d="M1158 687 c-30 -23 -32 -107 -3 -107 8 0 15 21 20 56 7 62 5 69 -17 51z"
      ></path>
      <path
        id="p4enJczjS"
        d="M1240 605 c0 -28 4 -35 20 -35 23 0 26 26 6 53 -20 25 -26 21 -26 -18z"
      ></path>
      <path
        id="pxhDFUhvf"
        d="M147 595 c23 -48 53 -48 53 0 0 33 -2 35 -35 35 l-35 0 17 -35z"
      ></path>
      <path
        id="p4BDBIku9"
        d="M970 595 c0 -33 2 -35 35 -35 40 0 45 11 13 33 l-23 15 25 10 c24 10 23 11 -12 11 -37 1 -38 0 -38 -34z"
      ></path>
      <path
        id="pzsiphbp2"
        d="M1150 564 c0 -13 21 -42 35 -48 11 -4 15 2 15 24 0 25 -4 30 -25 30 -14 0 -25 -3 -25 -6z"
      ></path>
      <path
        id="pHDwWNn1N"
        d="M1210 535 c0 -31 11 -32 47 0 l28 24 -37 1 c-34 0 -38 -3 -38 -25z"
      ></path>
      <path
        id="pPjUKzzeF"
        d="M960 465 c0 -29 4 -35 21 -35 17 0 19 3 10 13 -8 11 -5 16 14 25 36 16 31 32 -10 32 -33 0 -35 -2 -35 -35z"
      ></path>
      <path
        id="ppjDcusfj"
        d="M220 480 c0 -17 31 -60 44 -60 6 0 16 -10 21 -22 6 -14 21 -24 38 -26 26 -3 27 -1 27 37 0 39 -2 41 -30 41 -23 0 -30 4 -30 20 0 16 -7 20 -35 20 -19 0 -35 -5 -35 -10z"
      ></path>
      <path
        id="pLjaMuOXr"
        d="M1030 381 c0 -21 5 -31 15 -31 8 0 15 -7 15 -15 0 -10 10 -15 30 -15 30 0 30 0 14 25 -9 14 -30 35 -45 46 l-29 20 0 -30z"
      ></path>
      <path
        id="pf1bPXGIy"
        d="M360 366 c0 -14 58 -66 74 -66 4 0 6 17 4 38 -3 35 -5 37 -40 40 -29 2 -38 -1 -38 -12z"
      ></path>
      <path
        id="pRV7AFC8f"
        d="M460 295 c0 -12 47 -45 65 -45 3 0 5 14 5 30 0 28 -3 30 -35 30 -24 0 -35 -5 -35 -15z"
      ></path>
      <path
        id="p139nmkbxn"
        d="M990 175 c0 -33 2 -35 35 -35 33 0 35 2 35 35 0 33 -2 35 -35 35 -33 0 -35 -2 -35 -35z"
      ></path>
      <path
        id="p17qL2noU5"
        d="M1110 156 c0 -28 3 -33 19 -29 15 4 41 41 41 58 0 3 -13 5 -30 5 -27 0 -30 -3 -30 -34z"
      ></path>
      <path
        id="p110GD99Xp"
        d="M590 175 c0 -12 96 -108 122 -121 15 -8 45 -14 68 -14 35 0 40 3 40 24 0 21 -6 24 -50 30 -27 4 -50 11 -50 16 0 6 -13 10 -30 10 -27 0 -30 3 -30 30 0 28 -3 30 -35 30 -19 0 -35 -2 -35 -5z"
      ></path>
    </g>
  </g>
  <g id="l7XYZNB4eojUABhfurGCaV2" fill="rgb(159,55,23)" style="transform: none">
    <g>
      <path
        id="pgyBh1YIn"
        d="M725 1826 c-55 -18 -124 -43 -154 -55 -40 -16 -57 -19 -65 -11 -8 8 -7 11 3 8 24 -5 25 29 1 37 -46 15 -179 -34 -173 -63 2 -6 -3 -9 -11 -6 -8 3 -31 -15 -56 -43 -50 -57 -73 -99 -64 -115 4 -6 3 -8 -3 -5 -16 10 -37 -79 -37 -158 -1 -66 -8 -85 -31 -85 -5 0 -4 4 3 9 20 12 -38 33 -79 29 -29 -3 -36 -8 -45 -38 -16 -48 -2 -82 57 -133 l49 -43 -20 -46 c-64 -146 -37 -354 73 -562 47 -88 139 -196 167 -196 11 0 45 -18 77 -40 31 -22 63 -38 71 -35 7 2 11 1 8 -4 -3 -5 7 -13 22 -19 17 -6 41 -30 61 -61 20 -30 38 -48 45 -44 6 3 8 2 3 -2 -10 -11 43 -66 56 -58 6 3 7 1 3 -5 -10 -17 47 -42 94 -42 39 0 40 1 40 35 l0 36 43 -29 c87 -59 152 -77 164 -46 3 8 -2 34 -11 56 -9 23 -14 43 -13 45 2 1 20 -2 41 -8 50 -14 110 -4 102 17 -3 8 -2 12 3 9 15 -9 23 32 16 76 -8 48 -62 122 -128 177 -27 22 -49 43 -48 47 0 4 15 14 33 24 24 11 34 24 36 44 4 31 -21 67 -45 67 -27 0 -7 22 32 36 44 15 75 46 75 75 0 22 -37 49 -67 49 -13 0 -23 5 -23 10 0 6 5 10 10 10 6 0 31 20 55 45 34 33 45 52 45 75 0 23 -4 30 -20 30 -25 0 -25 12 -1 34 30 27 57 95 44 114 -17 28 -83 26 -146 -2 -70 -33 -97 -33 -127 -1 -21 22 -24 36 -24 94 0 77 13 104 68 146 26 20 51 28 94 32 l59 5 27 83 c42 131 58 196 59 252 3 70 -10 82 -61 55 l-39 -20 1 63 c1 84 -8 93 -75 76 -37 -10 -54 -10 -62 -2 -21 21 -110 11 -212 -23z m-65 -134 c0 -4 -16 -14 -35 -21 -36 -12 -99 -68 -122 -106 l-12 -20 6 20 c12 36 55 85 97 110 42 25 66 31 66 17z m150 -92 c-24 -19 -40 -25 -40 -15 0 5 51 34 60 34 3 0 -6 -8 -20 -19z m-550 -293 c0 -16 5 -38 11 -49 18 -34 -6 -47 -35 -19 -36 34 -42 69 -15 97 26 28 39 18 39 -29z m539 -576 c17 -11 6 -31 -18 -31 -25 0 -33 11 -20 27 13 15 19 16 38 4z m-343 -283 c24 -53 84 -112 147 -144 38 -20 45 -27 35 -38 -14 -14 -67 -1 -81 22 -4 6 -12 12 -18 12 -28 0 -137 159 -124 180 11 18 22 10 41 -32z m229 22 c3 -5 19 -10 35 -10 32 0 49 -17 26 -26 -16 -6 -86 23 -86 37 0 12 17 11 25 -1z"
      ></path>
      <path
        id="p14GQdPSuL"
        d="M1234 715 c26 -19 42 -19 26 0 -7 8 -20 15 -29 15 -13 -1 -13 -3 3 -15z"
      ></path>
      <path
        id="ppBws3JEy"
        d="M1156 685 c-39 -40 -11 -158 41 -171 30 -8 83 30 83 59 0 12 -13 45 -28 72 -30 55 -66 70 -96 40z"
      ></path>
    </g>
  </g>
  <g id="l741L3b0HhGKzUIpIXDjh5A" fill="rgb(129,45,21)" style="transform: none">
    <g>
      <path
        id="pEUJVm5KA"
        d="M570 6830 c0 -21 10 -24 48 -14 36 10 27 34 -13 34 -28 0 -35 -4 -35 -20z"
      ></path>
      <path
        id="phy9n56eP"
        d="M740 6836 c0 -19 37 -27 44 -9 9 22 8 23 -19 23 -15 0 -25 -6 -25 -14z"
      ></path>
      <path
        id="ph7oQN3VU"
        d="M1460 6826 c0 -13 28 -26 58 -26 6 0 12 9 12 20 0 16 -7 20 -35 20 -23 0 -35 -5 -35 -14z"
      ></path>
      <path
        id="pC2rO0E7F"
        d="M582 1714 c-56 -28 -102 -78 -122 -135 -16 -46 -8 -69 25 -69 25 0 34 8 80 66 13 17 46 42 72 55 72 36 88 63 57 93 -22 23 -52 20 -112 -10z"
      ></path>
      <path
        id="p17O3m8fH"
        d="M758 1628 c-47 -27 -64 -58 -49 -87 13 -24 52 -28 73 -8 7 6 31 22 53 34 42 23 58 59 33 74 -23 15 -72 9 -110 -13z"
      ></path>
      <path
        id="pteNhmz4R"
        d="M190 1365 c-19 -20 -22 -32 -18 -75 7 -67 37 -100 90 -100 29 0 41 6 54 25 15 23 15 27 -5 58 -12 19 -21 46 -21 60 0 44 -10 57 -44 57 -22 0 -40 -8 -56 -25z"
      ></path>
      <path
        id="p19vadjG1X"
        d="M340 1349 c-19 -35 -9 -64 23 -64 32 0 64 41 54 69 -9 24 -64 21 -77 -5z"
      ></path>
      <path
        id="pJsM91BQK"
        d="M1350 921 c0 -12 6 -21 15 -21 9 0 15 -9 15 -25 0 -30 25 -34 33 -6 7 28 -15 65 -41 69 -17 3 -22 -2 -22 -17z"
      ></path>
      <path
        id="p19FC9zzqY"
        d="M1352 813 c4 -36 22 -39 36 -8 16 35 16 35 -14 35 -22 0 -25 -4 -22 -27z"
      ></path>
      <path
        id="psMElrJOg"
        d="M725 750 c-15 -16 -17 -26 -9 -48 8 -24 15 -27 57 -30 27 -2 55 2 63 9 21 17 18 66 -5 79 -33 17 -86 12 -106 -10z"
      ></path>
      <path
        id="pEt3sEHlQ"
        d="M1220 730 c0 -12 33 -30 54 -30 9 0 16 9 16 20 0 16 -7 20 -35 20 -19 0 -35 -4 -35 -10z"
      ></path>
      <path
        id="p13FaVfAZP"
        d="M387 512 c-23 -25 -22 -38 13 -109 47 -95 155 -183 228 -183 22 0 62 32 62 51 0 23 -18 43 -59 63 -59 30 -123 91 -140 134 -8 19 -20 40 -28 48 -20 20 -57 18 -76 -4z"
      ></path>
      <path
        id="pZqVIGAu"
        d="M627 512 c-23 -26 -21 -45 8 -74 58 -58 165 -54 165 6 0 28 -18 46 -47 46 -12 0 -37 9 -55 20 -41 25 -51 25 -71 2z"
      ></path>
    </g>
  </g>
  <g id="l3mqbixGTapyNf5BYjwkpbG" fill="rgb(56,47,42)" style="transform: none">
    <g>
      <path
        id="p2DAqgMVU"
        d="M542 6928 c14 -126 2 -115 125 -110 60 2 111 7 115 11 7 7 48 142 48 160 0 8 -44 11 -148 11 l-148 0 8 -72z"
      ></path>
      <path
        id="p9n1SkR4h"
        d="M1313 6994 c-14 -6 -17 -91 -7 -154 l6 -35 82 3 c45 2 99 -1 118 -6 35 -9 38 -8 80 37 89 94 120 133 111 142 -11 11 -371 22 -390 13z"
      ></path>
      <path
        id="p17EbVaGmY"
        d="M1283 805 c-7 -8 -13 -35 -13 -61 0 -38 3 -45 16 -40 9 3 18 6 20 6 2 0 2 11 -2 24 -6 25 17 56 42 56 8 0 14 7 14 15 0 20 -60 20 -77 0z"
      ></path>
      <path
        id="pHCrf0JcM"
        d="M1222 738 c5 -34 38 -37 38 -4 0 20 -5 26 -21 26 -15 0 -20 -5 -17 -22z"
      ></path>
    </g>
  </g>
  <g id="l3xdZutPfeW6w1r6geozeZp" fill="rgb(47,38,30)" style="transform: none">
    <g>
      <path
        id="p110GbMVNT"
        d="M675 6993 c95 -3 142 -7 148 -16 6 -9 7 -8 4 3 -3 12 -28 15 -148 15 l-144 1 140 -3z"
      ></path>
      <path
        id="pVnK0MWIj"
        d="M1398 6993 c23 -2 59 -2 80 0 20 2 1 4 -43 4 -44 0 -61 -2 -37 -4z"
      ></path>
      <path
        id="pS2XBmVBv"
        d="M1628 6983 c12 -2 32 -2 45 0 12 2 2 4 -23 4 -25 0 -35 -2 -22 -4z"
      ></path>
      <path
        id="p1HC5hAdxo"
        d="M542 6940 c0 -19 2 -27 5 -17 2 9 2 25 0 35 -3 9 -5 1 -5 -18z"
      ></path>
      <path
        id="pBS1kSuPe"
        d="M1303 6900 c0 -25 2 -35 4 -22 2 12 2 32 0 45 -2 12 -4 2 -4 -23z"
      ></path>
      <path
        id="p18w1piv1b"
        d="M550 6871 c0 -17 4 -32 8 -35 4 -2 6 11 4 30 -5 42 -12 45 -12 5z"
      ></path>
      <path
        id="p13LEEyqtG"
        d="M1585 6840 c-21 -22 -34 -28 -52 -24 -28 7 -30 -1 -5 -15 15 -8 26 -3 57 29 22 22 37 40 34 40 -3 0 -18 -13 -34 -30z"
      ></path>
      <path
        id="pBLOyOypm"
        d="M1450 6820 c-11 -8 -7 -9 15 -4 37 8 45 14 19 14 -10 0 -26 -5 -34 -10z"
      ></path>
      <path
        id="p1GxNWCYIK"
        d="M1318 930 c-13 -8 -98 -151 -98 -166 0 -2 11 -4 25 -4 20 0 30 11 56 63 33 64 48 82 62 68 12 -12 -4 -71 -19 -71 -8 0 -14 -7 -14 -15 0 -8 4 -15 9 -15 5 0 15 -2 23 -5 16 -6 48 62 48 105 0 43 -49 64 -92 40z"
      ></path>
      <path
        id="p13sIWFZTk"
        d="M1220 744 c0 -16 15 -31 37 -38 28 -9 55 5 44 22 -9 15 -81 29 -81 16z"
      ></path>
    </g>
  </g>
  <g id="l51XD3WQ7UVk36opyXkZVYN" fill="rgb(0,0,0)" style="transform: none">
    <g>
      <path
        id="pg59rNLAE"
        d="M1324 928 c-12 -5 -34 -37 -50 -69 -15 -33 -34 -65 -41 -71 -16 -13 -17 -50 -1 -66 7 -7 26 -12 44 -12 28 0 31 3 26 25 -6 33 14 55 48 55 23 0 31 7 44 40 21 52 20 73 -2 93 -21 19 -37 20 -68 5z"
      ></path>
    </g>
  </g>
</svg>
